<svg width="60" height="60" viewBox="0 0 60 60" fill="none" xmlns="http://www.w3.org/2000/svg">
<rect width="60" height="60" rx="5" fill="#F5884A" fill-opacity="0.05"/>
<path fill-rule="evenodd" clip-rule="evenodd" d="M37.8698 37.122C36.0275 39.1939 33.3503 40.4978 30.3705 40.4978C27.3907 40.4978 24.7135 39.1939 22.8712 37.122H20.445C17.7242 37.122 15.5171 34.8494 15.5171 32.0448V28.6961C15.5171 25.8915 17.7242 23.6189 20.445 23.6189H22.8712C24.7135 21.5471 27.3907 20.2432 30.3705 20.2432C33.3502 20.2432 36.0275 21.5471 37.8697 23.6189H40.2953C43.0175 23.6189 45.2239 25.8915 45.2239 28.6961V32.0448C45.2239 35.1013 43.0175 37.122 40.2953 37.122H37.8698ZM20.3139 30.0613L20.1514 30.9503L19.6045 27.0135H17.7222L19.296 33.7461H20.8818H20.9562L21.6745 29.5966L22.4098 33.7461H24.0869L25.6444 26.9946H23.7972L23.2321 30.9503L22.5306 27.0135H20.8753L20.8665 27.0386L20.3139 30.0613ZM28.6827 27.4988C28.6872 27.6124 28.6688 27.7259 28.6284 27.8322C28.588 27.9386 28.5266 28.0357 28.4478 28.1177C28.369 28.1998 28.2744 28.265 28.1697 28.3096C28.0651 28.3542 27.9525 28.3772 27.8387 28.3772C27.725 28.3772 27.6124 28.3542 27.5077 28.3096C27.4031 28.265 27.3085 28.1998 27.2297 28.1177C27.1509 28.0357 27.0894 27.9386 27.0491 27.8322C27.0087 27.7259 26.9902 27.6124 26.9948 27.4988C26.9948 27.0289 27.3729 26.6494 27.8387 26.6494C28.3046 26.6494 28.6827 27.0289 28.6827 27.4988ZM28.688 29.02H26.9948V33.7461H28.688V29.02ZM38.8827 24.9691H34.8144C34.8144 24.9691 31.0457 25.0994 31.0457 28.962V31.8895C31.0457 31.8895 31.1139 33.8751 29.0202 35.7716H38.8829H40.3527C40.3527 35.7716 43.8736 35.7716 43.8736 32.0225V28.7284C43.8736 28.7284 43.7197 24.9691 40.2015 24.9691H38.8827ZM35.5611 28.594H39.3764V26.9946H33.7463V33.7461H35.5611V31.6862H39.0004V30.1037H35.5611V28.594ZM41.3418 26.6496C41.807 26.6496 42.1857 27.029 42.1857 27.4989C42.1857 27.9668 41.807 28.3449 41.3418 28.3449C40.8766 28.3449 40.4978 27.9668 40.4978 27.4989C40.4978 27.029 40.8766 26.6496 41.3418 26.6496ZM42.1911 33.7461H40.4978V29.02H42.1911V33.7461Z" fill="#F5884A"/>
</svg>
