<svg width="60" height="60" viewBox="0 0 60 60" fill="none" xmlns="http://www.w3.org/2000/svg">
<rect width="60" height="60" rx="5" fill="#63E2F3" fill-opacity="0.05"/>
<path d="M33.1748 33.1471H32.7944L32.5101 33.3999L26.9361 38.3583L26.4991 38.747L26.6236 39.3184L27.3629 42.7108L24.5972 45.4764L21.205 40.1709L21.0865 39.9856L20.9012 39.8671L15.5957 36.4749L18.3436 33.727L21.9305 34.6535L22.5492 34.8134L22.9541 34.319L27.697 28.5294L28.3963 27.6758L27.4781 27.0637L18.4935 21.074L21.7766 17.7897L33.6929 21.7634L34.2793 21.9589L34.7164 21.5218L40.8624 15.3757L40.8627 15.3754C42.4343 13.8026 44.7373 13.7896 46.0107 15.063C47.2837 16.336 47.2703 18.6377 45.6977 20.2116L39.5519 26.3574L39.1149 26.7944L39.3104 27.3807L43.2809 39.2924L39.9979 42.5766L34.0084 33.5924L33.7116 33.1471H33.1764H33.1748Z" fill="#63E2F3" stroke="#F7FDFE" stroke-width="2"/>
</svg>
