<svg width="60" height="60" viewBox="0 0 60 60" fill="none" xmlns="http://www.w3.org/2000/svg">
<rect width="60" height="60" rx="5" fill="#ED6363" fill-opacity="0.05"/>
<path d="M15.9037 40.0979L15.8911 40.1104L15.8769 40.1211C15.4776 40.4206 15.4263 41.1982 16.0223 41.675L16.0331 41.6836L16.0429 41.6934L19.245 44.8956C19.7043 45.3548 20.3813 45.3548 20.8406 44.8956L33.5098 32.2263L33.6255 32.1107L33.7777 32.1703C36.8877 33.3872 40.5414 32.7127 43.1162 30.1379C45.7414 27.5128 46.4551 23.6224 45.027 20.4359L39.1518 26.1776L38.9751 26.3503L38.8003 26.1756L34.6236 21.9989L34.4469 21.8221L34.6236 21.6454L40.3503 15.9186C37.1574 14.6115 33.2759 15.2076 30.6613 17.8222C28.0865 20.397 27.412 24.0508 28.629 27.1607L28.6885 27.313L28.5729 27.4286L15.9037 40.0979Z" fill="#ED6363" stroke="white" stroke-width="0.5"/>
</svg>
