<svg width="60" height="60" viewBox="0 0 60 60" fill="none" xmlns="http://www.w3.org/2000/svg">
<rect width="60" height="60" rx="5" fill="#7CCB1F" fill-opacity="0.05"/>
<path d="M27.0694 27.9952L31.4891 33.5331C31.4891 33.5331 30.6432 38.7251 27.5872 41.1476C24.5312 43.5712 14 42.8783 14 42.8783C14 42.8783 14.1936 41.7046 14.5605 40.0667L19.3823 34.3772C19.5846 34.1388 19.3379 33.7878 19.0434 33.8953L15.9655 35.0158C16.7013 32.9026 17.6329 30.9559 18.7478 30.0718C21.8038 27.6493 27.0694 27.9952 27.0694 27.9952ZM46.4368 18.5739L45.4248 17.3059C45.145 16.9559 44.6339 16.8975 44.2828 17.176L32.4359 26.1945L30.6962 24.015C30.4368 23.6898 29.9246 23.7507 29.7488 24.1271L28.458 26.894L32.8777 32.4319L35.8741 31.8004C36.2817 31.7147 36.456 31.2323 36.1972 30.9077L34.46 28.7307L46.3069 19.7122C46.658 19.4342 46.7166 18.9244 46.4368 18.5739Z" fill="#7CCB1F"/>
</svg>
