<svg width="60" height="60" viewBox="0 0 60 60" fill="none" xmlns="http://www.w3.org/2000/svg">
<rect width="60" height="60" rx="5" fill="#0078C9" fill-opacity="0.05"/>
<path d="M23.76 21.8993C23.2603 20.2065 21.904 20.3921 20.9766 21.1805C18.6923 23.2906 15.7178 27.7197 17.6215 34.0972C19.2158 39.5001 25.8496 42.9552 25.8496 42.9552H18.1163C18.1163 42.9552 14.1233 38.4798 13.7663 33.2161C13.3142 26.561 15.9795 22.3639 19.073 19.6277C21.976 17.0538 24.7363 16.2886 24.7363 16.2886L30.3827 34.7886L36.0291 16.2886C36.0291 16.2886 38.7894 17.0538 41.6924 19.6277C44.7859 22.3639 47.4512 26.561 46.9991 33.2161C46.6421 38.4798 42.6491 42.9552 42.6491 42.9552H34.9157C34.9157 42.9552 41.5491 39.5001 43.1439 34.0972C45.0476 27.7204 42.0731 23.2914 39.7887 21.1805C38.8607 20.3921 37.5044 20.2065 37.0054 21.8993C35.2921 27.3022 30.3834 42.7827 30.3834 42.7827C30.3834 42.7827 25.4747 27.2971 23.7614 21.8993H23.76Z" fill="#0078C9"/>
</svg>
