<svg width="32" height="32" viewBox="0 0 32 32" fill="none" xmlns="http://www.w3.org/2000/svg">
<path fill-rule="evenodd" clip-rule="evenodd" d="M16.2918 9.29202C16.3847 9.19889 16.4951 9.125 16.6166 9.07459C16.7381 9.02418 16.8683 8.99823 16.9998 8.99823C17.1314 8.99823 17.2616 9.02418 17.3831 9.07459C17.5046 9.125 17.6149 9.19889 17.7078 9.29202L23.7078 15.292C23.801 15.3849 23.8748 15.4953 23.9253 15.6167C23.9757 15.7382 24.0016 15.8685 24.0016 16C24.0016 16.1316 23.9757 16.2618 23.9253 16.3833C23.8748 16.5048 23.801 16.6151 23.7078 16.708L17.7078 22.708C17.5201 22.8958 17.2654 23.0013 16.9998 23.0013C16.7343 23.0013 16.4796 22.8958 16.2918 22.708C16.1041 22.5202 15.9986 22.2656 15.9986 22C15.9986 21.7345 16.1041 21.4798 16.2918 21.292L21.5858 16L16.2918 10.708C16.1987 10.6151 16.1248 10.5048 16.0744 10.3833C16.024 10.2618 15.998 10.1316 15.998 10C15.998 9.86848 16.024 9.73824 16.0744 9.61675C16.1248 9.49526 16.1987 9.38491 16.2918 9.29202Z" fill="#ffffff"/>
<path fill-rule="evenodd" clip-rule="evenodd" d="M8 16C8 15.7348 8.10536 15.4804 8.29289 15.2929C8.48043 15.1054 8.73478 15 9 15H22C22.2652 15 22.5196 15.1054 22.7071 15.2929C22.8946 15.4804 23 15.7348 23 16C23 16.2652 22.8946 16.5196 22.7071 16.7071C22.5196 16.8946 22.2652 17 22 17H9C8.73478 17 8.48043 16.8946 8.29289 16.7071C8.10536 16.5196 8 16.2652 8 16Z" fill="#ffffff"/>
</svg>
