<svg width="26" height="26" viewBox="0 0 26 26" fill="none" xmlns="http://www.w3.org/2000/svg">
<circle cx="13" cy="13" r="13" fill="url(#paint0_linear)"/>
<path d="M17.2776 7.79999H9.37255C8.48005 7.79999 7.80005 8.47999 7.80005 9.37249V17.2775C7.80005 18.17 8.48005 18.85 9.37255 18.85H17.2776C18.1701 18.85 18.85 18.17 18.85 17.2775V9.37249C18.85 8.47999 18.1701 7.79999 17.2776 7.79999ZM13.325 16.64C15.1525 16.64 16.6401 15.195 16.6401 13.4525C16.6401 13.155 16.5975 12.815 16.5125 12.56H17.4475V17.065C17.4475 17.2775 17.2775 17.49 17.0225 17.49H9.62755C9.41505 17.49 9.20255 17.32 9.20255 17.065V12.5175H10.1801C10.0951 12.815 10.0526 13.1125 10.0526 13.41C10.0101 15.195 11.4975 16.64 13.325 16.64ZM13.325 15.365C12.135 15.365 11.2 14.43 11.2 13.2825C11.2 12.135 12.135 11.2 13.325 11.2C14.515 11.2 15.45 12.135 15.45 13.2825C15.45 14.4725 14.515 15.365 13.325 15.365ZM17.4051 10.8175C17.4051 11.0725 17.1925 11.285 16.9375 11.285H15.7475C15.4925 11.285 15.2801 11.0725 15.2801 10.8175V9.66999C15.2801 9.41499 15.4925 9.20249 15.7475 9.20249H16.9375C17.1925 9.20249 17.4051 9.41499 17.4051 9.66999V10.8175Z" fill="white"/>
<defs>
<linearGradient id="paint0_linear" x1="5.525" y1="23.075" x2="22.75" y2="5.2" gradientUnits="userSpaceOnUse">
<stop stop-color="#EEA054"/>
<stop offset="0.502762" stop-color="#D64763"/>
<stop offset="1" stop-color="#B62A99"/>
</linearGradient>
</defs>
</svg>
