<svg width="26" height="26" viewBox="0 0 26 26" fill="none" xmlns="http://www.w3.org/2000/svg">
<circle cx="13" cy="13" r="13" fill="#7C509A"/>
<path d="M17.0651 6.85484C14.5876 6.38172 12.0148 6.38172 9.5373 6.85484C8.44149 7.09141 7.05982 8.41616 6.8216 9.45703C6.3928 11.4915 6.3928 13.5732 6.8216 15.6077C7.10746 16.6485 8.48913 17.9733 9.5373 18.2098C9.58495 18.2098 9.63259 18.2572 9.63259 18.3045V21.2852C9.63259 21.4271 9.82317 21.5217 9.91846 21.3798L11.3478 19.9131C11.3478 19.9131 12.4912 18.7303 12.6818 18.541C12.6818 18.541 12.7295 18.4937 12.7771 18.4937C14.2064 18.541 15.6834 18.3991 17.1127 18.1625C18.2085 17.926 19.5902 16.6012 19.8284 15.5603C20.2572 13.5259 20.2572 11.4442 19.8284 9.40972C19.5425 8.41616 18.1609 7.09141 17.0651 6.85484ZM17.1127 15.7496C16.8745 16.2227 16.5886 16.6012 16.1122 16.8378C15.9692 16.8851 15.8263 16.9324 15.6834 16.9797C15.4928 16.9324 15.3499 16.8851 15.2069 16.8378C13.6823 16.2227 12.253 15.3711 11.1096 14.141C10.4902 13.4313 9.9661 12.627 9.5373 11.7753C9.34673 11.3495 9.15615 10.971 9.01322 10.5452C8.87029 10.1667 9.10851 9.78822 9.34673 9.50435C9.58495 9.22047 9.87081 9.03122 10.2043 8.88928C10.4425 8.74734 10.6808 8.84197 10.8713 9.03122C11.2525 9.50435 11.6336 9.97747 11.9195 10.4979C12.1101 10.8291 12.0624 11.2076 11.7289 11.4442C11.6336 11.4915 11.586 11.5388 11.4907 11.6334C11.4431 11.6807 11.3478 11.728 11.3001 11.8227C11.2048 11.9646 11.2048 12.1065 11.2525 12.2485C11.6336 13.3367 12.3483 14.1883 13.4441 14.6614C13.6347 14.756 13.7776 14.8033 14.0158 14.8033C14.3493 14.756 14.4923 14.3775 14.7305 14.1883C14.9687 13.999 15.2546 13.999 15.5404 14.141C15.7787 14.2829 16.0169 14.4722 16.3027 14.6614C16.541 14.8507 16.7792 14.9926 17.0174 15.1818C17.1603 15.2765 17.208 15.513 17.1127 15.7496ZM15.1116 12.2012C15.0164 12.2012 15.064 12.2012 15.1116 12.2012C14.9211 12.2012 14.8734 12.1065 14.8258 11.9646C14.8258 11.87 14.8258 11.728 14.7781 11.6334C14.7305 11.4442 14.6352 11.2549 14.4446 11.113C14.3493 11.0657 14.2541 11.0183 14.1588 10.971C14.0158 10.9237 13.9205 10.9237 13.7776 10.9237C13.6347 10.8764 13.587 10.7818 13.587 10.6398C13.587 10.5452 13.73 10.4506 13.8253 10.4506C14.5876 10.4979 15.1593 10.9237 15.2546 11.8227C15.2546 11.87 15.2546 11.9646 15.2546 12.0119C15.2546 12.1065 15.2069 12.2012 15.1116 12.2012ZM14.6352 10.1194C14.397 10.0248 14.1588 9.93016 13.8729 9.88285C13.7776 9.88285 13.6347 9.83553 13.5394 9.83553C13.3965 9.83553 13.3012 9.74091 13.3488 9.59897C13.3488 9.45703 13.4441 9.36241 13.587 9.40972C14.0635 9.45703 14.4923 9.55166 14.9211 9.74091C15.7787 10.1667 16.2551 10.8764 16.398 11.8227C16.398 11.87 16.398 11.9173 16.398 11.9646C16.398 12.0592 16.398 12.1538 16.398 12.2958C16.398 12.3431 16.398 12.3904 16.398 12.4377C16.3504 12.627 16.0169 12.6743 15.9692 12.4377C15.9692 12.3904 15.9216 12.2958 15.9216 12.2485C15.9216 11.8227 15.8263 11.3968 15.6357 11.0183C15.3499 10.5925 15.0164 10.3087 14.6352 10.1194ZM17.208 12.9582C17.0651 12.9582 16.9698 12.8162 16.9698 12.6743C16.9698 12.3904 16.9221 12.1065 16.8745 11.8227C16.6839 10.3087 15.4452 9.07853 13.9682 8.84197C13.73 8.79466 13.4918 8.79466 13.3012 8.74734C13.1582 8.74734 12.9677 8.74734 12.92 8.55809C12.8724 8.41616 13.0153 8.27422 13.1582 8.27422C13.2059 8.27422 13.2535 8.27422 13.2535 8.27422C15.2069 8.32153 13.3488 8.27422 13.2535 8.27422C15.2546 8.32153 16.9221 9.64628 17.2556 11.6334C17.3033 11.9646 17.3509 12.2958 17.3509 12.6743C17.4462 12.8162 17.3509 12.9582 17.208 12.9582Z" fill="white"/>
</svg>
