<svg width="26" height="26" viewBox="0 0 26 26" fill="none" xmlns="http://www.w3.org/2000/svg">
<circle cx="13" cy="13" r="13" fill="#7294C7"/>
<path d="M19.374 16.3251C19.374 16.2712 19.3201 16.2712 19.3201 16.2172C19.1042 15.7855 18.6185 15.2458 17.9709 14.6522C17.6472 14.3824 17.4853 14.1665 17.3773 14.0586C17.2154 13.8428 17.2154 13.6809 17.2694 13.465C17.3234 13.3031 17.5392 13.0333 17.917 12.5476C18.1328 12.2778 18.2408 12.1159 18.4027 11.954C19.2121 10.8747 19.5899 10.1731 19.482 9.84935L19.428 9.79539C19.374 9.74142 19.3201 9.68746 19.2121 9.68746C19.1042 9.63349 18.9423 9.63349 18.7804 9.68746H16.7298C16.6758 9.68746 16.6758 9.68746 16.5679 9.68746C16.5139 9.68746 16.4599 9.68746 16.4599 9.68746H16.406H16.352L16.298 9.74142C16.2441 9.79538 16.2441 9.79538 16.2441 9.84935C16.0282 10.443 15.7584 10.9286 15.4886 11.4683C15.3267 11.7381 15.1648 12.0079 15.0029 12.2238C14.841 12.4397 14.733 12.6016 14.6251 12.7095C14.5172 12.8174 14.4093 12.8714 14.3553 12.9793C14.3013 13.0333 14.1934 13.0872 14.1934 13.0333C14.1394 13.0333 14.0855 13.0333 14.0855 12.9793C14.0315 12.9253 13.9775 12.8714 13.9236 12.8174C13.8696 12.7635 13.8696 12.6555 13.8156 12.5476C13.8156 12.4397 13.8156 12.3317 13.8156 12.2778C13.8156 12.2238 13.8156 12.0619 13.8156 11.954C13.8156 11.7921 13.8156 11.6842 13.8156 11.6302C13.8156 11.4683 13.8156 11.2524 13.8156 11.0366C13.8156 10.8207 13.8156 10.6588 13.8156 10.5509C13.8156 10.443 13.8156 10.2811 13.8156 10.1731C13.8156 10.0112 13.8156 9.90331 13.8156 9.84935C13.8156 9.79538 13.7617 9.68745 13.7617 9.63349C13.7077 9.57953 13.6537 9.52556 13.5998 9.47159C13.5458 9.41763 13.4379 9.41763 13.3839 9.36367C13.1141 9.3097 12.7903 9.25574 12.4126 9.25574C11.5491 9.25574 10.9555 9.3097 10.7396 9.41763C10.6317 9.4716 10.5238 9.52556 10.4698 9.63349C10.3619 9.74142 10.3619 9.79539 10.4159 9.79539C10.6857 9.84935 10.9015 9.95728 11.0095 10.1192L11.0634 10.2271C11.1174 10.2811 11.1174 10.389 11.1714 10.5509C11.2253 10.7128 11.2253 10.8747 11.2253 11.0905C11.2253 11.4143 11.2253 11.7381 11.2253 11.954C11.2253 12.2238 11.1714 12.3857 11.1714 12.5476C11.1714 12.7095 11.1174 12.8174 11.0634 12.8714C11.0095 12.9793 11.0095 13.0333 10.9555 13.0333C10.9555 13.0333 10.9555 13.0872 10.9015 13.0872C10.8476 13.0872 10.7936 13.1412 10.6857 13.1412C10.6317 13.1412 10.5238 13.0872 10.4698 13.0333C10.3619 12.9793 10.254 12.8714 10.2 12.7635C10.0921 12.6555 9.98414 12.4936 9.87621 12.2778C9.76828 12.0619 9.60638 11.8461 9.49845 11.5223L9.39053 11.3064C9.33656 11.1985 9.22863 10.9826 9.1207 10.7128C9.01277 10.443 8.90484 10.2271 8.79691 9.95728C8.74294 9.84935 8.68899 9.79538 8.63502 9.74142H8.58105C8.58105 9.74142 8.52708 9.68746 8.47312 9.68746C8.41915 9.68746 8.36519 9.63349 8.31123 9.63349H6.36849C6.15263 9.63349 6.0447 9.68745 5.99074 9.74142L5.93677 9.79539C5.93677 9.79539 5.93677 9.84935 5.93677 9.90331C5.93677 9.95728 5.93677 10.0112 5.99074 10.1192C6.26056 10.7667 6.58435 11.4143 6.90814 12.0619C7.23193 12.6555 7.55572 13.1952 7.77158 13.5729C8.0414 13.9507 8.25726 14.3284 8.52708 14.6522C8.79691 14.976 8.9588 15.1919 9.01277 15.2998C9.1207 15.4077 9.17466 15.4617 9.22862 15.5157L9.39053 15.6776C9.49846 15.7855 9.66035 15.9474 9.87621 16.1093C10.0921 16.2712 10.3619 16.4331 10.6317 16.595C10.9015 16.7569 11.2253 16.8648 11.5491 16.9727C11.9269 17.0807 12.2507 17.1346 12.5745 17.0806H13.3839C13.5458 17.0806 13.6538 17.0267 13.7617 16.9188L13.8156 16.8648C13.8156 16.8108 13.8696 16.8108 13.8696 16.7569C13.8696 16.7029 13.8696 16.6489 13.8696 16.541C13.8696 16.3251 13.8696 16.1632 13.9236 16.0014C13.9775 15.8395 13.9775 15.7315 14.0315 15.6236C14.0855 15.5157 14.1394 15.4617 14.1934 15.4077C14.2474 15.3538 14.3013 15.2998 14.3013 15.2998H14.3553C14.4632 15.2458 14.6251 15.2998 14.733 15.4077C14.8949 15.5157 15.0568 15.6776 15.1648 15.8395C15.2727 16.0013 15.4346 16.1632 15.6505 16.3791C15.8663 16.595 16.0282 16.7569 16.1361 16.8108L16.298 16.9188C16.406 16.9727 16.5139 17.0267 16.6758 17.0806C16.8377 17.1346 16.9456 17.1346 17.0535 17.1346L18.8884 17.0806C19.0502 17.0806 19.2121 17.0267 19.3201 16.9727C19.428 16.9188 19.482 16.8648 19.482 16.7569C19.482 16.7029 19.482 16.595 19.482 16.541C19.374 16.4331 19.374 16.3791 19.374 16.3251Z" fill="white"/>
</svg>
