<svg width="60" height="60" fill="none" xmlns="http://www.w3.org/2000/svg"><rect width="60" height="60" rx="5" fill="#0078C9" fill-opacity=".05"/><path d="M23.76 21.9c-.5-1.694-1.856-1.508-2.783-.72-2.285 2.11-5.26 6.54-3.355 12.917 1.594 5.403 8.228 8.858 8.228 8.858h-7.734s-3.993-4.475-4.35-9.739c-.452-6.655 2.213-10.852 5.307-13.588 2.903-2.574 5.663-3.34 5.663-3.34l5.647 18.5 5.646-18.5s2.76.766 5.663 3.34c3.094 2.736 5.76 6.933 5.307 13.588-.357 5.264-4.35 9.74-4.35 9.74h-7.733s6.633-3.456 8.228-8.859c1.904-6.377-1.07-10.806-3.355-12.917-.928-.788-2.285-.974-2.784.72l-6.622 20.883s-4.908-15.486-6.622-20.884h-.001z" fill="#0078C9"/></svg>