<svg width="60" height="60" fill="none" xmlns="http://www.w3.org/2000/svg"><rect width="60" height="60" rx="5" fill="#63E2F3" fill-opacity=".05"/><path d="M33.175 33.147h-.38l-.285.253-5.574 4.958-.437.389.125.571.739 3.393-2.766 2.765-3.392-5.305-.118-.185-.186-.119-5.305-3.392 2.748-2.748 3.586.927.62.16.404-.495 4.743-5.79.7-.853-.919-.612-8.985-5.99 3.284-3.284 11.916 3.973.586.196.437-.437 6.146-6.146h0c1.572-1.573 3.875-1.586 5.149-.313 1.273 1.273 1.26 3.575-.313 5.149l-6.146 6.145-.437.437.195.587 3.97 11.911-3.282 3.285-5.99-8.985-.296-.445h-.537z" fill="#63E2F3" stroke="#F7FDFE" stroke-width="2"/></svg>