<svg width="60" height="60" fill="none" xmlns="http://www.w3.org/2000/svg"><rect width="60" height="60" rx="5" fill="#F5884A" fill-opacity=".05"/><path fill-rule="evenodd" clip-rule="evenodd" d="M37.87 37.122a10.008 10.008 0 01-7.5 3.376c-2.98 0-5.657-1.304-7.499-3.376h-2.426c-2.72 0-4.928-2.273-4.928-5.077v-3.349c0-2.805 2.207-5.077 4.928-5.077h2.426a10.008 10.008 0 017.5-3.376c2.98 0 5.657 1.304 7.499 3.376h2.425c2.722 0 4.929 2.273 4.929 5.077v3.349c0 3.056-2.206 5.077-4.929 5.077H37.87zm-17.556-7.06l-.163.888-.546-3.936h-1.883l1.574 6.732h1.66l.718-4.15.736 4.15h1.677l1.557-6.751h-1.847l-.565 3.955-.701-3.936h-1.656l-.009.025-.552 3.022zm8.369-2.563a.845.845 0 11-1.688 0c0-.47.378-.85.844-.85.466 0 .844.38.844.85zm.005 1.521h-1.693v4.726h1.693V29.02zm10.195-4.05h-4.069s-3.768.13-3.768 3.992v2.928s.068 1.985-2.026 3.882h11.333s3.52 0 3.52-3.75v-3.294s-.153-3.759-3.671-3.759h-1.32zm-3.322 3.624h3.815v-1.6h-5.63v6.752h1.815v-2.06h3.44v-1.582h-3.44v-1.51zm5.78-1.944c.466 0 .845.379.845.849a.845.845 0 11-1.688 0c0-.47.379-.85.844-.85zm.85 7.096h-1.693V29.02h1.693v4.726z" fill="#F5884A"/></svg>