<svg width="60" height="60" fill="none" xmlns="http://www.w3.org/2000/svg"><rect width="60" height="60" rx="5" fill="#ED6363" fill-opacity=".05"/><path d="M15.904 40.098l-.013.012-.014.011c-.4.3-.45 1.077.145 1.554l.011.009.01.01 3.202 3.202c.46.459 1.136.459 1.596 0l12.669-12.67.116-.115.152.06c3.11 1.216 6.763.542 9.338-2.033 2.625-2.625 3.34-6.516 1.911-9.702l-5.875 5.742-.177.172-.175-.174-4.176-4.177-.177-.177.177-.177 5.726-5.726c-3.193-1.308-7.074-.711-9.689 1.903-2.575 2.575-3.249 6.229-2.032 9.339l.06.152-.116.116-12.67 12.669z" fill="#ED6363" stroke="#fff" stroke-width=".5"/></svg>