<svg width="60" height="60" fill="none" xmlns="http://www.w3.org/2000/svg"><rect width="60" height="60" rx="5" fill="#7CCB1F" fill-opacity=".05"/><path d="M27.07 27.995l4.42 5.538s-.847 5.192-3.903 7.615S14 42.878 14 42.878s.194-1.173.56-2.811l4.822-5.69c.203-.238-.044-.59-.339-.482l-3.077 1.12c.735-2.112 1.667-4.06 2.782-4.943 3.056-2.423 8.321-2.077 8.321-2.077zm19.367-9.421l-1.012-1.268a.815.815 0 00-1.142-.13l-11.847 9.019-1.74-2.18a.562.562 0 00-.947.112l-1.291 2.767 4.42 5.538 2.996-.632a.557.557 0 00.323-.892L34.46 28.73l11.847-9.019a.808.808 0 00.13-1.138z" fill="#7CCB1F"/></svg>