<svg width="26" height="26" fill="none" xmlns="http://www.w3.org/2000/svg"><circle cx="13" cy="13" r="13" fill="url(#paint0_linear)"/><path d="M17.278 7.8H9.373C8.48 7.8 7.8 8.48 7.8 9.372v7.905c0 .893.68 1.573 1.573 1.573h7.905c.892 0 1.572-.68 1.572-1.573V9.372c0-.892-.68-1.572-1.572-1.572zm-3.953 8.84c1.828 0 3.315-1.445 3.315-3.188a3.02 3.02 0 00-.128-.892h.936v4.505c0 .212-.17.425-.425.425H9.628a.426.426 0 01-.425-.425v-4.548h.977a3.235 3.235 0 00-.127.893c-.043 1.785 1.444 3.23 3.272 3.23zm0-1.275c-1.19 0-2.125-.935-2.125-2.082 0-1.148.935-2.083 2.125-2.083s2.125.935 2.125 2.083c0 1.19-.935 2.082-2.125 2.082zm4.08-4.547a.472.472 0 01-.468.467h-1.19a.472.472 0 01-.467-.467V9.67c0-.255.213-.468.468-.468h1.19c.255 0 .467.213.467.468v1.148z" fill="#fff"/><defs><linearGradient id="paint0_linear" x1="5.525" y1="23.075" x2="22.75" y2="5.2" gradientUnits="userSpaceOnUse"><stop stop-color="#EEA054"/><stop offset=".503" stop-color="#D64763"/><stop offset="1" stop-color="#B62A99"/></linearGradient></defs></svg>