<svg width="26" height="26" fill="none" xmlns="http://www.w3.org/2000/svg"><circle cx="13" cy="13" r="13" fill="#7C509A"/><path d="M17.065 6.855a20.14 20.14 0 00-7.528 0C8.441 7.09 7.06 8.416 6.822 9.457a14.865 14.865 0 000 6.15c.285 1.041 1.667 2.366 2.715 2.603.048 0 .096.047.096.095v2.98c0 .142.19.237.285.095l1.43-1.467s1.143-1.183 1.334-1.372c0 0 .047-.047.095-.047 1.43.047 2.906-.095 4.336-.331 1.096-.237 2.477-1.562 2.715-2.603a14.864 14.864 0 000-6.15c-.285-.994-1.667-2.319-2.763-2.555zm.048 8.895c-.238.473-.524.851-1 1.088l-.43.142c-.19-.048-.333-.095-.476-.142-1.525-.615-2.954-1.467-4.097-2.697a11.377 11.377 0 01-1.573-2.366c-.19-.425-.38-.804-.524-1.23-.143-.378.096-.757.334-1.04.238-.285.524-.474.857-.616.239-.142.477-.047.667.142.381.473.763.946 1.048 1.467.191.331.143.71-.19.946a.827.827 0 00-.238.19c-.048.047-.143.094-.19.189a.457.457 0 00-.049.425c.382 1.089 1.096 1.94 2.192 2.413.19.095.334.142.572.142.333-.047.476-.426.714-.615.239-.189.525-.189.81-.047.239.142.477.331.763.52.238.19.476.332.714.52.143.096.191.332.096.569zm-2.001-3.55c-.096 0-.048 0 0 0-.19 0-.239-.095-.286-.236 0-.095 0-.237-.048-.332a.898.898 0 00-.333-.52l-.286-.142c-.143-.047-.239-.047-.381-.047-.143-.048-.191-.142-.191-.284 0-.095.143-.19.238-.19.763.048 1.334.474 1.43 1.373v.189c0 .095-.048.19-.143.19zm-.477-2.082c-.238-.094-.476-.189-.762-.236-.095 0-.238-.047-.334-.047-.143 0-.238-.095-.19-.237 0-.142.095-.237.238-.19.476.048.905.143 1.334.332.858.426 1.334 1.135 1.477 2.082v.615c-.048.189-.381.236-.429 0 0-.048-.047-.142-.047-.19 0-.425-.096-.851-.286-1.23a2.555 2.555 0 00-1-.899zm2.573 2.84c-.143 0-.238-.143-.238-.285 0-.284-.048-.567-.095-.851-.191-1.514-1.43-2.744-2.907-2.981-.238-.047-.476-.047-.667-.095-.143 0-.333 0-.381-.189-.048-.142.095-.284.238-.284h.096c1.953.048.095 0 0 0 2 .048 3.668 1.372 4.002 3.36.047.33.095.662.095 1.04.095.142 0 .284-.143.284z" fill="#fff"/></svg>