<svg width="26" height="26" fill="none" xmlns="http://www.w3.org/2000/svg"><circle cx="13" cy="13" r="13" fill="#48C95F"/><path d="M18.152 7.84a6.778 6.778 0 00-4.803-1.99c-3.758 0-6.801 3.033-6.801 6.778 0 1.184.332 2.37.903 3.365L6.5 19.5l3.615-.948a6.955 6.955 0 003.234.806c3.757 0 6.801-3.034 6.801-6.778-.048-1.754-.713-3.46-1.998-4.74zm-1.521 7.205c-.143.379-.81.758-1.142.806a2.667 2.667 0 01-1.046-.048c-.238-.095-.571-.19-.951-.38-1.713-.71-2.807-2.416-2.902-2.558-.095-.095-.713-.901-.713-1.754s.428-1.232.57-1.422c.143-.19.334-.19.476-.19h.333c.095 0 .238-.047.38.285.143.332.476 1.185.524 1.232a.302.302 0 010 .284c-.048.095-.095.19-.19.285-.096.095-.19.237-.238.284-.095.095-.19.19-.095.332.095.19.428.711.95 1.185.667.569 1.19.758 1.38.853.19.095.285.047.38-.047.096-.095.429-.474.524-.664.095-.19.237-.142.38-.095.143.048.999.474 1.142.57.19.094.285.141.333.189.047.142.047.474-.095.853z" fill="#fff"/></svg>