<svg version="1.0" xmlns="http://www.w3.org/2000/svg" width="1200px" height="493px" viewBox="0 0 12000 4930" preserveAspectRatio="xMidYMid meet">
<g id="layer101" fill="#3c3c3b" stroke="none">
<path d="M6720 4129 c-538 -68 -875 -355 -975 -828 -28 -132 -35 -334 -35 -953 0 -668 5 -750 55 -936 125 -466 453 -754 955 -839 126 -21 401 -21 530 1 472 78 750 333 846 776 9 41 18 137 21 213 l6 137 -305 0 -305 0 -8 -92 c-23 -298 -146 -468 -377 -523 -81 -19 -245 -19 -327 0 -203 48 -349 213 -412 466 l-24 94 0 700 c0 697 0 700 23 783 61 224 187 364 386 428 150 49 389 43 596 -14 l65 -17 3 -333 2 -332 -255 0 -255 0 0 -280 0 -280 570 0 570 0 0 763 0 763 -32 31 c-140 131 -403 226 -738 268 -133 16 -465 19 -580 4z"/>
<path d="M10651 4128 c-464 -52 -776 -299 -876 -694 -32 -125 -50 -314 -40 -427 l7 -87 301 0 302 0 1 138 c1 202 38 320 134 425 88 96 224 147 395 147 268 0 458 -131 510 -351 32 -139 9 -282 -63 -377 -87 -116 -210 -186 -547 -312 -265 -100 -370 -145 -477 -207 -182 -104 -306 -230 -384 -388 -102 -207 -129 -502 -68 -745 19 -76 79 -210 123 -273 218 -317 709 -472 1238 -391 406 62 671 297 769 681 21 83 24 118 24 269 l0 174 -290 0 -290 0 0 -22 c-1 -56 -22 -219 -36 -273 -34 -134 -110 -243 -204 -290 -91 -46 -153 -58 -284 -53 -139 6 -199 24 -289 88 -169 121 -219 401 -102 577 76 115 200 184 570 318 351 127 478 191 628 313 123 100 227 256 276 416 19 62 21 91 21 350 0 270 -1 285 -24 352 -104 306 -345 515 -695 605 -175 45 -427 59 -630 37z"/>
<path d="M8677 4093 c-4 -3 -7 -789 -7 -1745 l0 -1738 310 0 310 0 -2 1743 -3 1742 -301 3 c-165 1 -303 -1 -307 -5z"/>
</g>
<g id="layer102" fill="#afca0b" stroke="none">
<path d="M2335 4913 c-599 -52 -1183 -319 -1606 -735 -305 -299 -535 -687 -644 -1084 -65 -238 -79 -350 -80 -629 0 -278 10 -367 70 -600 107 -417 326 -796 641 -1111 372 -371 878 -631 1399 -718 247 -42 605 -46 835 -11 329 50 654 163 927 321 107 62 257 163 251 169 -2 2 -35 -3 -73 -11 -163 -34 -470 -34 -641 1 -173 36 -333 101 -469 190 -80 52 -241 214 -294 295 -86 132 -144 280 -178 448 -22 108 -24 401 -4 510 l13 72 323 0 323 0 -5 -97 c-12 -206 31 -441 102 -568 65 -117 180 -206 310 -240 75 -19 261 -20 332 -1 174 46 280 163 320 349 22 106 13 275 -22 392 -128 435 -541 898 -1577 1769 l-188 157 0 260 0 259 925 0 c563 0 925 4 925 9 0 5 -43 42 -95 81 -470 353 -1019 534 -1605 528 -96 -1 -193 -3 -215 -5z"/>
<path d="M3460 3616 c0 -3 71 -63 158 -133 666 -541 980 -878 1176 -1263 92 -180 166 -431 166 -566 0 -24 4 -44 8 -44 13 0 91 256 117 383 38 188 48 318 42 540 -9 362 -88 679 -245 989 l-48 93 -687 3 c-378 1 -687 0 -687 -2z"/>
</g>
</svg>