<svg width="18" height="18" viewBox="0 0 18 18" fill="none" xmlns="http://www.w3.org/2000/svg">
<path d="M8.99919 4.55213C9.53473 4.55213 10.0483 4.76487 10.427 5.14355C10.8057 5.52223 11.0184 6.03583 11.0184 6.57136C11.0184 7.10689 10.8057 7.62049 10.427 7.99917C10.0483 8.37785 9.53473 8.59059 8.99919 8.59059C8.46366 8.59059 7.95006 8.37785 7.57138 7.99917C7.1927 7.62049 6.97996 7.10689 6.97996 6.57136C6.97996 6.03583 7.1927 5.52223 7.57138 5.14355C7.95006 4.76487 8.46366 4.55213 8.99919 4.55213V4.55213ZM8.99919 5.35982C8.67787 5.35982 8.36971 5.48747 8.14251 5.71467C7.9153 5.94188 7.78765 6.25004 7.78765 6.57136C7.78765 6.89268 7.9153 7.20084 8.14251 7.42805C8.36971 7.65525 8.67787 7.7829 8.99919 7.7829C9.32051 7.7829 9.62867 7.65525 9.85588 7.42805C10.0831 7.20084 10.2107 6.89268 10.2107 6.57136C10.2107 6.25004 10.0831 5.94188 9.85588 5.71467C9.62867 5.48747 9.32051 5.35982 8.99919 5.35982V5.35982ZM5.20304 8.87894L8.99919 15.1224L12.7953 8.87894C13.2048 8.20532 13.4276 7.4349 13.4409 6.64674C13.4542 5.85858 13.2575 5.08107 12.8711 4.39402C12.4847 3.70696 11.9224 3.1351 11.242 2.73712C10.5615 2.33915 9.78747 2.1294 8.99919 2.1294C8.21092 2.1294 7.43685 2.33915 6.75641 2.73712C6.07598 3.1351 5.5137 3.70696 5.12727 4.39402C4.74085 5.08107 4.5442 5.85858 4.55752 6.64674C4.57083 7.4349 4.79363 8.20532 5.20304 8.87894V8.87894ZM13.4851 9.29894L8.99919 16.6772L4.51327 9.29894C4.02956 8.50283 3.76638 7.59236 3.75074 6.66096C3.7351 5.72956 3.96756 4.81077 4.42427 3.99887C4.88098 3.18698 5.54548 2.51122 6.34959 2.04094C7.15371 1.57067 8.06847 1.32281 9 1.32281C9.93154 1.32281 10.8463 1.57067 11.6504 2.04094C12.4545 2.51122 13.119 3.18698 13.5757 3.99887C14.0324 4.81077 14.2649 5.72956 14.2493 6.66096C14.2336 7.59236 13.9704 8.50283 13.4867 9.29894H13.4851V9.29894Z" fill="#73808E" stroke="#73808E" stroke-width="0.8"/>
</svg>
