<svg width="18" height="18" viewBox="0 0 18 18" fill="none" xmlns="http://www.w3.org/2000/svg">
<path d="M8.9999 10.6001C10.9118 10.6001 12.4666 9.16485 12.4666 7.40004C12.4666 5.63522 10.9118 4.20001 8.9999 4.20001C7.08802 4.20001 5.5332 5.63522 5.5332 7.40004C5.5332 9.16485 7.08802 10.6001 8.9999 10.6001ZM8.9999 5.80003C9.95584 5.80003 10.7332 6.51763 10.7332 7.40004C10.7332 8.28245 9.95584 9.00005 8.9999 9.00005C8.04396 9.00005 7.26655 8.28245 7.26655 7.40004C7.26655 6.51763 8.04396 5.80003 8.9999 5.80003Z" fill="#73808E"/>
<path d="M8.49732 16.8513C8.64401 16.948 8.81975 17 8.99999 17C9.18024 17 9.35598 16.948 9.50266 16.8513C9.76613 16.6793 15.9585 12.5521 15.9334 7.40005C15.9334 3.87122 12.8229 1 8.99999 1C5.1771 1 2.0666 3.87122 2.0666 7.39605C2.04147 12.5521 8.23385 16.6793 8.49732 16.8513ZM8.99999 2.60001C11.8678 2.60001 14.2 4.75283 14.2 7.40405C14.2182 10.9545 10.3971 14.1425 8.99999 15.1881C7.60378 14.1417 3.78175 10.9529 3.79995 7.40005C3.79995 4.75283 6.13217 2.60001 8.99999 2.60001Z" fill="#73808E"/>
</svg>
