<svg width="70" height="70" viewBox="0 0 70 70" fill="none" xmlns="http://www.w3.org/2000/svg">
<path d="M38.1748 38.1471H37.7944L37.5101 38.3999L31.9361 43.3583L31.4991 43.747L31.6236 44.3184L32.3629 47.7108L29.5972 50.4764L26.205 45.1709L26.0865 44.9856L25.9012 44.8671L20.5957 41.4749L23.3436 38.727L26.9305 39.6535L27.5492 39.8134L27.9541 39.319L32.697 33.5294L33.3963 32.6758L32.4781 32.0637L23.4935 26.074L26.7766 22.7897L38.6929 26.7634L39.2793 26.9589L39.7164 26.5218L45.8624 20.3757L45.8627 20.3754C47.4343 18.8026 49.7373 18.7896 51.0107 20.063C52.2837 21.336 52.2703 23.6377 50.6977 25.2116L44.5519 31.3574L44.1149 31.7944L44.3104 32.3807L48.2809 44.2924L44.9979 47.5766L39.0084 38.5924L38.7116 38.1471H38.1764H38.1748Z" fill="#4D4F4A" stroke="white" stroke-width="2"/>
</svg>