<svg width="367" height="367" viewBox="0 0 367 367" fill="none" xmlns="http://www.w3.org/2000/svg">
<path d="M204.73 256C186.033 254.241 167.488 251.129 149.24 246.69C112.24 237.47 76.47 221.18 48.24 195.55C73.14 169.55 86.71 154.5 106.24 124.29C120.73 101.87 138.53 62.45 165.37 52.29C207.44 36.36 264.25 51.84 276.21 99.16C281.26 119.16 281.45 140.08 278.59 160.42C277.29 169.59 268.01 259.11 262.69 259.02C243.36 258.68 224 257.89 204.73 256Z" fill="#F2D4CF"/>
<path d="M318.09 281.81C285.594 306.831 245.69 320.315 204.679 320.134C163.667 319.953 123.883 306.117 91.61 280.81L140.27 258C141.759 257.296 143.211 256.515 144.62 255.66L145.74 254.96C146.14 254.71 146.53 254.45 146.92 254.18C153.059 249.945 158.09 244.296 161.59 237.71C165.59 230.16 166.91 221.82 166.97 213.32C166.97 207.6 166.66 201.88 166.6 196.15C166.56 192.983 166.527 189.813 166.5 186.64L168.5 187.64L173.7 190.33L204 195.49L235.12 200.79L236.06 232.79L236.53 248.66L248 253.3L257 256.94L318.09 281.81Z" fill="#F2A196"/>
<path d="M235.91 227.67C233.19 229.35 230.62 230.14 228.37 229.9C213.58 228.31 184.73 216.72 166.57 195.27C166.57 194.217 166.55 193.167 166.51 192.12C166.47 188.947 166.437 185.777 166.41 182.61L168.41 183.61L173.61 186.3L203.9 191.45L235.02 196.75L235.91 227.67Z" fill="#E88870"/>
<path d="M141.5 171.63C150.889 171.63 158.5 164.019 158.5 154.63C158.5 145.241 150.889 137.63 141.5 137.63C132.111 137.63 124.5 145.241 124.5 154.63C124.5 164.019 132.111 171.63 141.5 171.63Z" fill="#F2A196"/>
<path d="M147.5 169.63C156.889 169.63 164.5 162.019 164.5 152.63C164.5 143.241 156.889 135.63 147.5 135.63C138.111 135.63 130.5 143.241 130.5 152.63C130.5 162.019 138.111 169.63 147.5 169.63Z" fill="#E88870"/>
<path d="M257 128.88C268.74 169.57 243.79 218.75 228.46 218.75C207.46 218.75 156.46 201.98 144.72 161.29C132.98 120.6 148.59 80.37 179.59 71.42C210.59 62.47 245.29 88.2 257 128.88Z" fill="#F2A196"/>
<path d="M193.86 161.13C204.353 161.13 212.86 152.623 212.86 142.13C212.86 131.637 204.353 123.13 193.86 123.13C183.367 123.13 174.86 131.637 174.86 142.13C174.86 152.623 183.367 161.13 193.86 161.13Z" stroke="white" stroke-miterlimit="10"/>
<path d="M247 158.13C257.493 158.13 266 149.623 266 139.13C266 128.637 257.493 120.13 247 120.13C236.507 120.13 228 128.637 228 139.13C228 149.623 236.507 158.13 247 158.13Z" stroke="white" stroke-miterlimit="10"/>
<path d="M218.33 74.8C214.03 93.5 204.64 109.38 187.47 120.94C168.95 133.77 147.67 135.57 126.34 139.8C126.88 126.69 127.17 112.65 133.94 100.95C141.613 87.9732 152.819 77.4468 166.25 70.6C181.05 62.94 203.96 55.44 220.6 60.75C220.141 65.4766 219.382 70.1693 218.33 74.8Z" fill="#F2D4CF"/>
<path d="M220.08 130.78C220 131.13 228 163.13 228 163.13H215.5" stroke="#00214E" stroke-miterlimit="10"/>
<path d="M231.53 120.57C238.599 116.971 246.772 116.199 254.39 118.41" stroke="#00214E" stroke-miterlimit="10"/>
<path d="M176.42 124.27C181.233 121.82 186.526 120.46 191.924 120.287C197.321 120.114 202.691 121.132 207.65 123.27" stroke="#00214E" stroke-miterlimit="10"/>
<path d="M212.86 142.13L228 140.84" stroke="white" stroke-miterlimit="10"/>
<path d="M318.09 281.81C285.594 306.831 245.69 320.315 204.679 320.134C163.667 319.953 123.883 306.117 91.61 280.81L140.27 258C142.587 256.911 144.811 255.633 146.92 254.18C147.56 253.74 148.2 253.28 148.81 252.8C154.106 248.748 158.465 243.601 161.59 237.71C163.952 233.184 165.522 228.286 166.23 223.23C166.936 223.914 167.677 224.562 168.45 225.17C174.582 229.704 181.236 233.485 188.27 236.43C191.685 237.854 195.177 239.086 198.73 240.12C209.434 243.241 220.61 244.423 231.73 243.61C233.27 243.49 234.82 243.34 236.36 243.23L236.51 248.31V248.64L248.61 253.56L318.09 281.81Z" fill="#00214E"/>
<path d="M194.09 174.42C194.225 174.202 194.404 174.014 194.615 173.869C194.826 173.723 195.066 173.623 195.318 173.575C195.57 173.527 195.829 173.532 196.079 173.59C196.329 173.648 196.564 173.757 196.77 173.91C198.85 175.38 202.65 178.47 208.05 179.55C215.41 181.01 221.79 178.07 223.32 179.97C224.18 181.04 223.13 182.34 221.12 184.02C219.013 185.592 216.613 186.727 214.061 187.359C211.509 187.991 208.857 188.107 206.26 187.7C199.18 186.38 193.86 178.17 193.86 175.27C193.859 174.971 193.938 174.677 194.09 174.42Z" fill="white"/>
<path d="M194.82 135.78C200.92 135.83 200.92 145.16 194.82 145.21H194.54C188.44 145.16 188.44 135.83 194.54 135.78H194.82Z" fill="#00214E"/>
<path d="M245.08 135.12C250.74 135.12 250.74 143.82 245.08 143.87H244.82C239.16 143.82 239.16 135.17 244.82 135.12H245.08Z" fill="#00214E"/>
</svg>
