<svg width="24" height="24" viewBox="0 0 24 24" fill="none" xmlns="http://www.w3.org/2000/svg">
<g clip-path="url(#clip0)">
<path d="M22.8 8.2C22.1373 8.2 21.6 8.73726 21.6 9.4V10.6H8.6596C8.75084 10.4131 8.79883 10.208 8.8 10C8.8 9.2268 8.1732 8.6 7.4 8.6H4.6C3.8268 8.6 3.2 9.2268 3.2 10C3.20117 10.208 3.24916 10.4131 3.3404 10.6H2.4V6.2C2.4 5.53726 1.86274 5 1.2 5C0.53726 5 2.17932e-06 5.53726 2.17932e-06 6.2V17.4C-0.00110398 17.9838 0.418997 18.4832 0.994331 18.5822C1.56966 18.6811 2.13246 18.3506 2.3264 17.8H21.6736C21.8675 18.3506 22.4303 18.6811 23.0057 18.5822C23.581 18.4832 24.0011 17.9838 24 17.4V9.4C24 8.73726 23.4627 8.2 22.8 8.2ZM21.6 15H7.6C7.37909 15 7.2 14.8209 7.2 14.6V11.4H21.6V15ZM4 10C4 9.66863 4.26863 9.4 4.6 9.4H7.4C7.73137 9.4 8 9.66863 8 10C8 10.3314 7.73137 10.6 7.4 10.6H4.6C4.26863 10.6 4 10.3314 4 10ZM1.2 17.8C0.979088 17.8 0.800002 17.6209 0.800002 17.4V6.2C0.800002 5.97909 0.979088 5.8 1.2 5.8C1.42092 5.8 1.6 5.97909 1.6 6.2V17.4C1.6 17.6209 1.42092 17.8 1.2 17.8ZM2.4 11.4H6.4V14.6C6.4 15.2627 6.93726 15.8 7.6 15.8H21.6V17H2.4V11.4ZM23.2 17.4C23.2 17.6209 23.0209 17.8 22.8 17.8C22.5791 17.8 22.4 17.6209 22.4 17.4V9.4C22.4 9.17909 22.5791 9 22.8 9C23.0209 9 23.2 9.17909 23.2 9.4V17.4Z" fill="#0C2A4E"/>
<path d="M8.4 13.0002H17.2C17.4209 13.0002 17.6 12.8211 17.6 12.6002C17.6 12.3793 17.4209 12.2002 17.2 12.2002H8.4C8.17909 12.2002 8 12.3793 8 12.6002C8 12.8211 8.17909 13.0002 8.4 13.0002Z" fill="#0C2A4E"/>
</g>
<defs>
<clipPath id="clip0">
<rect width="24" height="24" fill="white"/>
</clipPath>
</defs>
</svg>
