<svg version="1.0" xmlns="http://www.w3.org/2000/svg" width="1200px" height="212px" viewBox="0 0 12000 2120" preserveAspectRatio="xMidYMid meet">
<g id="layer101" fill="#1e3d79" stroke="none">
<path d="M6745 2048 c-148 -38 -193 -52 -231 -74 -24 -14 -44 -27 -44 -28 0 -13 84 -194 96 -208 21 -23 73 -24 140 -2 120 38 259 35 341 -8 48 -25 85 -82 98 -151 8 -41 6 -43 -33 -23 -206 106 -465 55 -603 -118 -92 -115 -124 -217 -124 -391 1 -138 13 -195 61 -291 90 -180 271 -277 485 -261 76 6 190 47 230 83 13 12 18 11 35 -4 48 -45 74 -55 164 -60 64 -3 94 -1 105 8 13 11 15 79 15 524 0 479 -6 609 -29 661 -5 11 -21 45 -34 76 -25 56 -134 179 -159 179 -6 0 -21 8 -32 18 -24 21 -59 33 -175 61 -91 23 -234 26 -306 9z m309 -758 c21 -14 49 -47 64 -75 25 -46 27 -60 27 -160 0 -100 -3 -115 -27 -166 -38 -75 -85 -102 -182 -103 -103 0 -145 24 -186 108 -30 61 -32 70 -28 158 5 142 42 207 148 260 8 4 45 6 81 5 51 -2 75 -8 103 -27z"/>
<path d="M1547 1635 c-286 -59 -476 -336 -438 -634 11 -89 56 -212 95 -264 65 -87 154 -159 229 -187 18 -7 41 -16 52 -21 59 -25 110 -31 226 -27 108 3 134 7 199 33 94 36 163 85 226 157 93 106 133 220 133 378 1 113 -21 208 -64 288 -43 77 -69 108 -148 175 -32 28 -135 77 -192 93 -75 22 -238 26 -318 9z m263 -298 c91 -45 139 -137 140 -268 0 -167 -109 -289 -260 -289 -152 0 -258 120 -259 293 -1 78 32 173 77 220 74 80 196 97 302 44z"/>
<path d="M2792 1636 c-196 -38 -351 -175 -419 -371 -25 -71 -28 -93 -27 -200 1 -108 4 -128 32 -197 65 -168 153 -259 317 -328 75 -32 89 -34 211 -38 125 -4 135 -3 219 27 153 53 261 145 326 276 38 77 73 243 64 305 -13 92 -47 207 -77 259 -66 114 -206 223 -332 257 -77 21 -229 26 -314 10z m238 -292 c109 -50 156 -135 153 -279 -2 -177 -103 -286 -262 -285 -96 1 -185 59 -222 145 -31 71 -37 185 -13 261 47 151 204 223 344 158z"/>
<path d="M2 888 l3 -742 34 -23 c33 -22 40 -23 286 -23 283 0 336 7 433 55 80 39 137 97 178 180 26 55 29 69 29 165 0 97 -2 110 -30 165 -16 33 -50 81 -75 107 l-45 47 43 27 c123 78 183 215 167 384 -10 115 -77 231 -172 299 -57 41 -159 79 -238 91 -38 5 -193 10 -343 10 l-272 0 2 -742z m613 446 c19 -9 47 -32 62 -52 23 -31 28 -49 32 -110 4 -85 -8 -120 -55 -162 -46 -40 -90 -50 -221 -50 -104 0 -114 2 -140 24 l-28 24 -3 171 -4 171 162 0 c127 0 169 -3 195 -16z m-37 -647 c97 -53 108 -219 19 -291 -38 -30 -42 -31 -156 -34 -114 -3 -119 -3 -147 21 l-29 25 -4 152 -3 152 143 -4 c114 -3 151 -7 177 -21z"/>
<path d="M3610 865 l0 -765 115 0 c137 0 174 12 198 63 15 31 17 78 17 381 l0 346 29 0 c40 0 88 -19 96 -37 7 -19 96 -156 106 -163 3 -3 14 -21 24 -40 10 -19 33 -56 52 -83 l35 -47 179 0 c199 0 200 0 152 63 -16 19 -36 48 -45 64 -21 34 -81 124 -123 183 -16 23 -43 63 -58 89 -16 25 -40 57 -53 72 -30 32 -30 44 2 86 14 18 36 57 49 86 14 28 40 79 59 112 19 33 45 78 57 100 12 22 32 54 45 72 13 17 24 35 24 40 0 5 15 31 33 58 62 93 72 87 -133 83 l-179 -3 -36 -35 c-19 -19 -47 -57 -60 -85 -31 -62 -118 -225 -151 -282 -23 -39 -28 -43 -64 -43 l-40 0 0 225 0 225 -165 0 -165 0 0 -765z"/>
<path d="M4730 1076 l0 -553 62 -6 c120 -11 214 18 245 76 16 29 18 76 21 535 l3 502 -166 0 -165 0 0 -554z"/>
<path d="M5230 1075 l0 -555 48 -2 c127 -6 201 11 237 54 14 16 25 36 25 44 0 21 13 17 46 -15 48 -47 150 -92 229 -102 184 -23 336 38 410 164 53 92 57 129 60 565 l2 404 -129 -4 -130 -3 -25 -30 c-52 -62 -53 -73 -53 -396 0 -385 -3 -394 -134 -394 -65 0 -76 3 -128 37 -46 30 -64 50 -90 100 l-33 63 -5 310 -5 310 -162 3 -163 2 0 -555z"/>
<path d="M4855 425 c-5 -2 -22 -6 -37 -9 -73 -16 -138 -124 -123 -204 19 -102 90 -162 193 -162 144 0 233 170 153 291 -16 24 -42 51 -58 61 -27 16 -108 31 -128 23z"/>
</g>
<g id="layer102" fill="#00acee" stroke="none">
<path d="M8428 1635 c-109 -27 -227 -103 -304 -196 -51 -63 -103 -190 -116 -285 -11 -82 2 -213 26 -267 8 -18 25 -57 39 -87 26 -60 116 -159 183 -204 23 -15 77 -41 120 -58 70 -27 95 -31 209 -35 127 -5 134 -4 219 26 96 33 140 62 183 118 26 34 28 44 31 150 l4 113 -109 0 -109 0 -30 -32 c-17 -18 -38 -45 -47 -60 -31 -50 -152 -57 -249 -14 -49 21 -98 73 -127 135 -35 75 -36 203 -3 268 77 149 249 206 412 138 63 -26 84 -40 154 -98 l34 -27 40 62 c22 35 52 87 68 116 l29 54 -50 44 c-71 64 -182 121 -265 139 -88 18 -265 18 -342 0z"/>
<path d="M9542 1635 c-79 -14 -178 -61 -246 -116 -84 -66 -166 -203 -186 -310 -13 -69 -13 -216 1 -281 32 -149 159 -310 292 -367 28 -13 68 -30 87 -39 43 -19 266 -28 325 -14 183 46 316 148 388 295 43 88 60 167 59 273 0 111 -17 186 -63 275 -118 227 -370 336 -657 284z m254 -296 c49 -24 67 -42 99 -92 l40 -62 0 -110 c0 -102 -2 -113 -27 -155 -57 -95 -131 -140 -228 -140 -97 0 -171 45 -228 140 -25 41 -27 54 -27 150 0 97 2 109 29 157 35 64 60 88 123 119 71 35 144 33 219 -7z"/>
<path d="M7680 1620 c-54 -32 -83 -82 -88 -149 -16 -217 258 -286 358 -91 27 53 25 103 -6 160 -39 72 -75 94 -159 98 -57 2 -77 -1 -105 -18z"/>
<path d="M10367 1623 c-4 -3 -7 -251 -7 -549 l0 -544 26 -6 c44 -11 168 2 210 22 26 13 45 32 57 57 9 20 20 37 23 37 4 0 26 -17 49 -39 23 -21 66 -51 96 -66 46 -24 69 -29 156 -33 98 -4 104 -3 170 27 74 34 109 65 137 120 l18 34 56 -56 c36 -35 83 -68 127 -89 67 -32 75 -33 190 -33 115 0 122 1 180 31 56 30 105 78 133 131 9 16 12 154 12 493 l0 472 -100 -4 c-97 -3 -100 -4 -132 -36 l-33 -32 -5 -328 c-5 -324 -5 -327 -30 -377 -31 -61 -63 -74 -144 -56 -68 15 -125 71 -163 161 l-28 65 -3 303 -3 302 -160 0 -159 0 0 -354 c0 -194 -3 -367 -6 -384 -3 -17 -19 -45 -34 -64 -26 -31 -32 -33 -87 -33 -72 0 -118 27 -164 95 -58 87 -63 116 -67 443 l-3 297 -153 0 c-84 0 -156 -3 -159 -7z"/>
</g>
</svg>