<svg width="70" height="70" viewBox="0 0 70 70" fill="none" xmlns="http://www.w3.org/2000/svg">
<path d="M31.5841 33.1108L36.8542 39.7143C36.8542 39.7143 35.8455 45.9053 32.2015 48.7939C28.5575 51.6838 16 50.8576 16 50.8576C16 50.8576 16.2309 49.458 16.6684 47.5051L22.4179 40.7207C22.6591 40.4365 22.365 40.0179 22.0138 40.1461L18.3437 41.4822C19.2211 38.9625 20.3319 36.6412 21.6614 35.587C25.3054 32.6983 31.5841 33.1108 31.5841 33.1108V33.1108ZM54.6781 21.8768L53.4713 20.3647C53.1377 19.9474 52.5282 19.8778 52.1096 20.2099L37.9832 30.9637L35.9087 28.3647C35.5994 27.9771 34.9887 28.0496 34.7791 28.4984L33.2399 31.7977L38.51 38.4012L42.0829 37.6482C42.569 37.546 42.7768 36.9708 42.4682 36.5837L40.3967 33.9878L54.5231 23.234C54.9418 22.9026 55.0117 22.2947 54.6781 21.8768V21.8768Z" fill="#4D4F4A"/>
</svg>