<svg width="16" height="16" viewBox="0 0 16 16" fill="none" xmlns="http://www.w3.org/2000/svg">
<path d="M8.00004 14.6663C11.614 14.6663 14.6667 11.6137 14.6667 7.99967C14.6667 4.38567 11.614 1.33301 8.00004 1.33301C4.38604 1.33301 1.33337 4.38567 1.33337 7.99967C1.33337 11.6137 4.38604 14.6663 8.00004 14.6663ZM8.00004 2.66634C10.8914 2.66634 13.3334 5.10834 13.3334 7.99967C13.3334 10.891 10.8914 13.333 8.00004 13.333C5.10871 13.333 2.66671 10.891 2.66671 7.99967C2.66671 5.10834 5.10871 2.66634 8.00004 2.66634Z" fill="#73808E"/>
<path d="M7.99996 11.3337C8.60063 11.3337 9.72063 11.2217 10.4713 10.4723L9.52863 9.52833C9.23329 9.82366 8.66129 10.0003 7.99996 10.0003C6.91596 10.0003 5.99996 9.08433 5.99996 8.00033C5.99996 6.91633 6.91596 6.00033 7.99996 6.00033C8.66196 6.00033 9.23396 6.17699 9.52863 6.47166L10.4713 5.52899C9.72129 4.77899 8.60063 4.66699 7.99996 4.66699C6.16196 4.66699 4.66663 6.16233 4.66663 8.00033C4.66663 9.83833 6.16196 11.3337 7.99996 11.3337Z" fill="#73808E"/>
</svg>