<svg width="18" height="18" viewBox="0 0 18 18" fill="none" xmlns="http://www.w3.org/2000/svg">
<path d="M12.8417 10.8131C12.8417 11.514 13.0408 11.7935 13.5617 11.7935C14.7225 11.7935 15.4617 10.3125 15.4617 7.84939C15.4617 4.08469 12.7217 2.28244 9.30083 2.28244C5.78167 2.28244 2.58083 4.64539 2.58083 9.11097C2.58083 13.3763 5.38083 15.6992 9.68083 15.6992C11.1408 15.6992 12.1208 15.539 13.62 15.0384L13.9417 16.3792C12.4617 16.8607 10.88 17 9.66083 17C4.02083 17 1 13.8961 1 9.11014C1 4.2841 4.50083 1 9.32083 1C14.3408 1 17 4.00375 17 7.68836C17 10.8123 16.0208 13.1952 12.9408 13.1952C11.54 13.1952 10.6208 12.6345 10.5008 11.3922C10.1408 12.7739 9.18083 13.1952 7.88 13.1952C6.14 13.1952 4.68 11.8527 4.68 9.15019C4.68 6.42678 5.96083 4.74468 8.26083 4.74468C9.48083 4.74468 10.2408 5.22528 10.5792 5.98623L11.16 4.92491H12.84V10.8131H12.8417ZM10.3825 8.1698C10.3825 7.06925 9.56167 6.60784 8.88167 6.60784C8.14167 6.60784 7.3225 7.20776 7.3225 8.9708C7.3225 10.3725 7.9425 11.1535 8.88167 11.1535C9.54167 11.1535 10.3825 10.733 10.3825 9.57155V8.1698Z" fill="#73808E"/>
</svg>