<svg width="96" height="18" viewBox="0 0 96 18" fill="none" xmlns="http://www.w3.org/2000/svg">
<path fill-rule="evenodd" clip-rule="evenodd" d="M56.549 10.5769L59.829 9.2236C59.6468 8.76726 59.1081 8.45254 58.4663 8.45254C57.6463 8.4486 56.5094 9.16853 56.549 10.5769V10.5769ZM60.3995 11.8869L61.6513 12.7131C61.2472 13.3071 60.2767 14.33 58.5931 14.33C56.5094 14.33 55.004 12.7288 55.004 10.6871C55.004 8.51942 56.5213 7.04416 58.4148 7.04416C60.1539 7.10317 61.2353 8.2165 61.7226 9.77436L56.8104 11.7886C57.1868 12.5203 57.7691 12.894 58.5891 12.894C59.4052 12.894 59.9756 12.4928 60.3916 11.8869H60.3995ZM52.4291 14.1096H54.0414V3.40914H52.4291V14.1096ZM49.7987 10.6989C49.7987 9.41637 48.9352 8.47614 47.8379 8.47614C46.7287 8.47614 45.7938 9.41637 45.7938 10.6989C45.7938 11.9695 46.7247 12.894 47.8379 12.894C48.9391 12.894 49.7987 11.9695 49.7987 10.6989ZM51.2169 7.26447V13.7949C51.2169 16.4858 49.6205 17.5912 47.7309 17.5912C45.9522 17.5912 44.8826 16.4032 44.4786 15.4393L45.8809 14.861C46.1305 15.4551 46.7445 16.1593 47.7309 16.1593C49.5333 15.9559 49.6918 14.7981 49.6918 13.4959H49.6324C49.2719 13.9365 48.5747 14.326 47.6992 14.326C45.8651 14.326 44.1815 12.7406 44.1815 10.6949C44.1815 8.63744 45.8611 7.03629 47.6992 7.03629C48.5747 7.03629 49.2719 7.42183 49.6324 7.85063H49.6878V7.2566C49.6878 7.25266 51.2169 7.25266 51.2169 7.25266V7.26447ZM33.6283 10.6871C33.6283 9.37703 32.6855 8.48007 31.5961 8.48007C30.5027 8.48007 29.5639 9.37703 29.5639 10.6871C29.5639 11.9853 30.5067 12.894 31.5961 12.894C32.6855 12.894 33.6283 11.9813 33.6283 10.6871ZM35.2128 10.6871C35.2128 12.7839 33.5887 14.33 31.5961 14.33C29.6035 14.33 27.9793 12.7839 27.9793 10.6871C27.9793 8.57449 29.6035 7.04416 31.5961 7.04416C33.5887 7.04416 35.2128 8.57449 35.2128 10.6871ZM41.7492 10.6871C41.7492 9.37703 40.8063 8.48007 39.717 8.48007C38.6236 8.48007 37.6848 9.37703 37.6848 10.6871C37.6848 11.9853 38.6276 12.894 39.717 12.894C40.8063 12.894 41.7492 11.9813 41.7492 10.6871ZM43.3337 10.6871C43.3337 12.7839 41.7095 14.33 39.717 14.33C37.7244 14.33 36.1002 12.7839 36.1002 10.6871C36.1002 8.57449 37.7244 7.04416 39.717 7.04416C41.7095 7.04416 43.3337 8.57449 43.3337 10.6871ZM21.7837 14.33C18.6462 14.33 16 11.7886 16 8.66498C16 5.5453 18.6423 3 21.7837 3C23.5227 3 24.7587 3.67665 25.6896 4.5618L24.5923 5.65152C23.9268 5.02995 23.0236 4.54606 21.7837 4.54606C19.49 4.54606 17.7034 6.38325 17.7034 8.63743C17.7034 10.9152 19.4979 12.7288 21.7837 12.7288C23.2692 12.7288 24.1169 12.1348 24.6596 11.5958C25.1033 11.1552 25.3965 10.5179 25.5074 9.64848H21.7837V8.10241H27.0127C27.0682 8.37779 27.0959 8.70825 27.0959 9.06624C27.0959 10.2268 26.775 11.6627 25.749 12.6816C24.7508 13.7241 23.4712 14.2788 21.7876 14.2788" fill="#5F6368"/>
<path d="M65.5076 14.0288V4.51611H66.7446L70.0713 10.31H70.1215L73.4482 4.51611H74.6853V14.0288H73.4486L73.4988 6.79052H73.4486L70.4562 12.0034H69.7374L66.745 6.79052H66.6949C66.7862 9.19813 66.745 11.6216 66.745 14.0288H65.5076ZM78.5469 14.1948C77.8448 14.1948 77.2764 13.9956 76.8084 13.5971C76.3403 13.1987 76.1062 12.6674 76.1062 12.0196C76.1062 11.3057 76.3904 10.7579 76.9421 10.3594C77.4938 9.96101 78.1792 9.76179 78.9816 9.76179C79.7004 9.76179 80.3022 9.89461 80.7536 10.1602C80.7416 8.77939 79.7807 8.40047 79.0317 8.40047C78.3246 8.43383 77.7111 8.7275 77.4603 9.34675L76.3403 8.86531C76.4907 8.48348 76.7916 8.11785 77.243 7.78621C77.6944 7.45458 78.2795 7.28817 79.015 7.28817C79.8509 7.28817 80.553 7.53719 81.1047 8.01863C81.6563 8.50008 81.9405 9.19734 81.9405 10.0772V14.0118H80.7703V13.1153C80.2236 13.796 79.4848 14.1794 78.5469 14.1944V14.1948ZM80.7536 11.1733C80.0331 10.6288 78.5302 10.5607 77.8281 11.1235C77.2764 11.6548 77.2179 12.367 77.7947 12.7837C79.1889 13.6718 80.8038 12.2889 80.7536 11.1733ZM86.7383 14.1948C86.2368 14.1948 85.7855 14.0952 85.401 13.8794C85.0165 13.6635 84.7156 13.3979 84.515 13.0825H84.4481L84.4982 13.979V16.851H83.2779V7.47118H84.4481V8.36766H84.4982C84.6989 8.05223 84.983 7.78661 85.3843 7.57079C85.7855 7.35497 86.2368 7.25536 86.7216 7.25536C87.5742 7.25536 88.293 7.58739 88.9116 8.25145C89.5301 8.91551 89.8306 9.74558 89.8306 10.7251C89.8306 11.7046 89.5297 12.5346 88.9116 13.1987C88.3098 13.8628 87.5742 14.1948 86.7383 14.1948V14.1948ZM86.5377 13.0659C87.1061 13.0659 87.5909 12.8501 88.0088 12.4184C88.4268 11.9868 88.6274 11.4223 88.6274 10.7085C88.6274 9.9946 88.4268 9.43016 88.0088 8.99852C87.5909 8.56688 87.1061 8.35106 86.5377 8.35106C85.9526 8.35106 85.4678 8.56688 85.0666 8.98192C84.6654 9.41355 84.4648 9.978 84.4648 10.6919C84.4648 11.4057 84.6654 11.9868 85.0666 12.4018C85.4678 12.8667 85.9526 13.0659 86.5377 13.0659ZM93.4252 14.1948C92.6896 14.1948 92.0878 14.0122 91.6197 13.6635C91.135 13.3149 90.8006 12.8667 90.5666 12.3354L91.6699 11.8872C92.021 12.7006 92.6061 13.1157 93.4419 13.1157C93.8264 13.1157 94.144 13.0331 94.3781 12.8667C94.6288 12.7006 94.7459 12.4848 94.7459 12.2026C94.7459 11.771 94.4449 11.4887 93.8431 11.3393L92.5225 11.0239C92.1045 10.9243 91.7033 10.7085 91.3356 10.4262C90.9678 10.144 90.7672 9.72898 90.7672 9.23094C90.7672 8.64988 91.0179 8.18504 91.5362 7.83641C92.0544 7.47118 92.6562 7.30516 93.3583 7.30516C93.9434 7.30516 94.4617 7.43798 94.913 7.7036C95.3644 7.96922 95.6987 8.33446 95.8826 8.8325L94.8127 9.26414C94.5787 8.68309 94.0772 8.40086 93.3082 8.40086C92.9404 8.40086 92.6395 8.48348 92.3891 8.63328C92.1388 8.78309 92.0214 8.98191 92.0214 9.24754C92.0214 9.61277 92.3055 9.87839 92.8906 10.0112L94.1946 10.31C94.8131 10.4594 95.2645 10.6919 95.5654 11.0405C95.8663 11.3891 96 11.771 96 12.2026C96 12.7837 95.766 13.2817 95.2812 13.6635C94.8131 13.9956 94.1946 14.1948 93.4256 14.1948H93.4252Z" fill="#63666A"/>
<path d="M3.47778 13.3347C4.037 14.0292 4.60655 14.9026 4.90461 15.4301C5.26759 16.1158 5.41809 16.5789 5.68811 17.4082C5.84599 17.8625 5.99649 18.0002 6.31225 18.0002C6.65752 18.0002 6.8154 17.7687 6.93639 17.4082C7.18871 16.6302 7.38348 16.0382 7.69186 15.474C8.88113 13.2468 10.82 11.6642 11.9118 9.49559C11.9118 9.49559 12.6304 8.17095 12.6304 6.31587C12.6304 4.58681 11.9222 3.38525 11.9222 3.38525L3.48221 13.3493L3.47778 13.3347Z" fill="#34A853"/>
<path d="M0.615309 9.26071C1.29552 10.7993 2.5925 12.1474 3.47781 13.3343L8.16996 7.81006C8.16996 7.81006 7.50745 8.67166 6.31081 8.67166C4.97694 8.67166 3.89096 7.61663 3.89096 6.28321C3.89096 5.36592 4.44133 4.72998 4.44133 4.72998C0.988615 5.23991 1.18043 6.07074 0.60498 9.25778L0.615309 9.26071Z" fill="#FBBC04"/>
<path d="M8.2292 0.288574C9.79325 0.788244 11.1212 1.8418 11.918 3.38037L8.17018 7.82025C8.17018 7.82025 8.72055 7.18138 8.72055 6.26703C8.72055 4.90576 7.56374 3.87858 6.31545 3.87858C5.13061 3.87858 4.4563 4.72992 4.4563 4.72992C4.74402 4.07932 7.71719 0.509836 8.23362 0.29004L8.2292 0.288574Z" fill="#4285F4"/>
<path d="M1.47119 2.24192C2.40372 1.14001 4.03859 0 6.29613 0C7.38654 0 8.2143 0.2872 8.2143 0.2872L4.45173 4.72708C4.19795 4.59037 1.72203 2.67565 1.47119 2.23606V2.24192Z" fill="#1A73E8"/>
<path d="M0.61529 9.261C0.61529 9.261 0 8.04773 0 6.30108C0 4.64529 0.652178 3.19463 1.47552 2.25684L4.45606 4.74786L0.619717 9.261H0.61529Z" fill="#EA4335"/>
</svg>
