<svg version="1.0" xmlns="http://www.w3.org/2000/svg" width="1200px" height="369px" viewBox="0 0 12000 3690" preserveAspectRatio="xMidYMid meet">
<g id="layer101" fill="#34a853" stroke="none">
<path d="M1612 3019 c-253 -53 -459 -170 -643 -367 -431 -459 -425 -1180 13 -1639 187 -195 407 -313 668 -359 140 -24 370 -15 503 19 174 46 340 131 461 238 l48 42 -169 169 c-92 92 -172 168 -176 168 -5 0 -28 -16 -50 -36 -66 -56 -189 -111 -291 -129 -107 -18 -138 -18 -237 -1 -148 27 -273 92 -383 202 -149 149 -225 345 -213 549 17 279 170 507 423 626 260 123 593 69 788 -128 58 -59 128 -182 141 -250 l7 -33 -326 0 -326 0 0 -240 0 -240 569 0 569 0 11 75 c17 115 13 285 -9 415 -81 483 -402 821 -869 916 -152 31 -369 32 -509 3z"/>
</g>
<g id="layer102" fill="#757575" stroke="none">
<path d="M9004 3300 c-140 -19 -280 -87 -366 -178 l-50 -53 62 -70 63 -70 58 56 c34 32 87 69 126 88 65 31 73 32 188 32 104 0 126 -4 165 -23 74 -36 117 -78 151 -148 30 -60 33 -76 37 -182 l5 -116 -48 42 c-91 80 -185 111 -332 112 -184 0 -327 -80 -428 -240 -147 -232 -151 -683 -8 -917 106 -174 243 -253 437 -253 143 0 240 34 334 116 l49 43 7 -37 c3 -20 6 -52 6 -69 l0 -33 110 0 111 0 -3 733 -3 732 -26 76 c-76 222 -247 345 -504 362 -44 3 -108 1 -141 -3z m246 -729 c65 -25 126 -74 162 -130 l28 -45 0 -317 0 -317 -40 -51 c-72 -91 -158 -131 -281 -131 -167 0 -282 99 -334 286 -9 32 -19 115 -22 184 -12 263 61 440 211 511 52 25 73 29 143 29 57 0 98 -6 133 -19z"/>
<path d="M2623 2774 c9 -11 17 -23 17 -26 0 -2 -83 -69 -185 -148 -169 -131 -201 -160 -177 -160 5 0 37 -28 71 -62 63 -63 132 -184 146 -255 l7 -33 -326 0 -326 0 0 -240 0 -240 569 0 569 0 11 75 c17 115 13 285 -9 415 -43 256 -154 475 -322 635 -34 33 -55 51 -45 39z"/>
<path d="M4410 2770 c-150 -40 -288 -127 -375 -238 -60 -75 -129 -217 -155 -317 -48 -187 -48 -557 0 -754 87 -358 333 -552 700 -553 148 0 242 18 348 69 165 78 300 262 327 446 l7 47 -120 0 -120 0 -21 -68 c-60 -199 -192 -292 -418 -292 -253 0 -409 140 -470 420 -26 123 -26 500 0 615 38 165 125 302 239 376 90 57 162 73 315 66 158 -7 234 -29 321 -95 l32 -24 0 -209 0 -209 -215 0 -216 0 3 -97 3 -98 333 -3 332 -2 0 345 0 345 -59 59 c-71 69 -183 130 -296 161 -120 33 -390 38 -495 10z"/>
<path d="M6021 2775 c-72 -20 -175 -76 -233 -125 -56 -49 -138 -168 -166 -243 -52 -139 -68 -361 -36 -515 53 -256 222 -444 446 -497 81 -19 235 -19 317 0 138 33 268 127 350 254 85 133 116 267 108 480 -5 163 -22 235 -83 351 -67 129 -187 233 -324 281 -84 29 -294 37 -379 14z m327 -209 c148 -75 224 -236 226 -481 1 -199 -45 -326 -156 -428 -132 -120 -356 -113 -475 16 -95 103 -134 221 -134 412 -1 192 35 307 129 407 78 83 147 110 272 104 68 -2 96 -9 138 -30z"/>
<path d="M7500 2774 c-152 -40 -299 -158 -372 -299 -62 -120 -82 -216 -82 -395 1 -139 4 -164 28 -245 88 -293 299 -455 590 -455 114 0 217 23 301 68 79 43 194 164 238 252 62 125 80 211 80 390 0 140 -3 164 -27 245 -39 130 -80 199 -166 286 -81 82 -158 127 -265 154 -75 19 -251 19 -325 -1z m322 -207 c144 -71 228 -251 228 -489 -1 -181 -49 -316 -146 -408 -79 -75 -129 -95 -239 -95 -77 0 -98 4 -147 27 -154 72 -238 248 -238 496 0 252 108 441 280 489 74 21 197 12 262 -20z"/>
<path d="M11090 2783 c-215 -36 -404 -215 -467 -444 -25 -90 -25 -385 0 -479 32 -121 92 -227 176 -310 123 -122 238 -170 406 -170 222 0 385 97 475 284 51 106 69 187 77 354 l6 132 -465 0 -466 0 5 48 c17 172 104 306 241 370 51 24 69 27 167 27 104 0 114 -2 176 -32 37 -18 90 -57 122 -88 l57 -56 70 53 c38 29 69 56 70 60 0 5 -32 42 -71 83 -78 82 -163 132 -274 160 -55 14 -240 19 -305 8z m427 -886 c-20 -211 -156 -339 -344 -324 -81 6 -158 44 -213 103 -46 50 -94 147 -105 209 -4 22 -9 48 -12 58 -4 16 17 17 338 17 l342 0 -6 -63z"/>
<path d="M10050 1800 l0 -970 115 0 115 0 0 970 0 970 -115 0 -115 0 0 -970z"/>
<path d="M743 2302 c-69 -174 -93 -297 -93 -462 0 -310 117 -601 332 -827 187 -195 407 -313 668 -359 140 -24 370 -15 503 19 174 46 340 131 461 238 l48 42 -169 169 c-92 92 -172 168 -176 168 -5 0 -28 -16 -50 -36 -92 -78 -284 -145 -416 -144 -110 1 -259 46 -368 111 -72 44 -189 161 -232 232 -103 173 -137 388 -88 565 l14 53 -191 148 c-105 81 -196 150 -202 154 -7 4 -23 -22 -41 -71z"/>
</g>
<g id="layer103" fill="#ea4335" stroke="none">
<path d="M742 2298 c-233 -563 -11 -1198 523 -1503 100 -57 206 -98 327 -127 79 -19 120 -22 268 -22 162 1 183 3 290 31 63 17 151 47 194 67 81 37 213 121 276 176 l35 30 -169 169 -169 170 -41 -34 c-203 -165 -504 -190 -750 -63 -112 58 -244 190 -303 304 -76 145 -104 350 -68 499 8 33 14 65 15 71 0 12 -373 304 -388 304 -6 0 -24 -33 -40 -72z"/>
</g>
<g id="layer104" fill="#4285f4" stroke="none">
<path d="M2457 2602 l-188 -146 51 -45 c80 -69 159 -197 176 -286 l6 -35 -323 -2 -324 -3 -3 -237 -2 -238 564 0 c529 0 565 1 570 18 3 9 10 68 16 130 26 280 -41 571 -182 789 -44 68 -139 182 -161 194 -7 4 -95 -58 -200 -139z"/>
</g>
<g id="layer105" fill="#fabc06" stroke="none">
<path d="M742 2298 c-107 -258 -121 -542 -41 -806 27 -87 69 -182 81 -182 16 0 388 292 388 304 -1 6 -7 38 -15 71 -19 77 -19 233 0 310 8 33 14 65 15 71 0 12 -373 304 -388 304 -6 0 -24 -33 -40 -72z"/>
</g>
</svg>