<svg width="24" height="24" viewBox="0 0 24 24" fill="none" xmlns="http://www.w3.org/2000/svg">
<g clip-path="url(#clip0)">
<path d="M19.2852 19.9175H16.642C16.4675 19.9175 16.3262 20.0589 16.3262 20.2333C16.3262 20.4077 16.4675 20.5491 16.642 20.5491H19.2852C19.4596 20.5491 19.601 20.4077 19.601 20.2333C19.601 20.0589 19.4596 19.9175 19.2852 19.9175Z" fill="#333333"/>
<path d="M16.642 19.3743H18.4041C18.5785 19.3743 18.7199 19.2329 18.7199 19.0585C18.7199 18.8841 18.5785 18.7427 18.4041 18.7427H16.642C16.4675 18.7427 16.3262 18.8841 16.3262 19.0585C16.3262 19.2329 16.4675 19.3743 16.642 19.3743Z" fill="#333333"/>
<path d="M19.2852 17.5679H16.642C16.4675 17.5679 16.3262 17.7092 16.3262 17.8837C16.3262 18.0581 16.4675 18.1995 16.642 18.1995H19.2852C19.4596 18.1995 19.601 18.0581 19.601 17.8837C19.601 17.7092 19.4596 17.5679 19.2852 17.5679Z" fill="#333333"/>
<path d="M22.9837 14.0544C22.986 13.5057 22.813 12.9707 22.4899 12.5273L22.1309 12.0417C23.8991 10.391 24.477 7.82641 23.5876 5.57692C22.6983 3.32739 20.523 1.8513 18.104 1.85598C15.955 1.84951 13.975 3.02026 12.945 4.90633C11.4289 4.7417 9.89897 5.04902 8.56406 5.78636C7.5503 6.39498 6.9922 7.2017 6.98405 8.06078C6.984 8.06326 6.98264 8.06533 6.98264 8.06781V8.0799C6.98264 8.08478 6.98152 8.08956 6.98156 8.09448C6.98161 8.09875 6.98259 8.10292 6.98264 8.10719V9.33531L6.1455 9.83762C6.08442 9.87437 6.0375 9.93062 6.01242 9.99737L5.80687 10.544L4.51533 10.5748C4.34883 10.5788 4.21402 10.7114 4.20741 10.8778L4.18167 11.5205L2.72236 11.5552C2.55586 11.5592 2.42105 11.6918 2.41444 11.8582L2.38467 12.5995L0.820969 12.6392C0.766453 12.6407 0.71325 12.6562 0.666469 12.6843L0.153188 12.9923C0.0558283 13.0507 -0.00267173 13.1569 9.38927e-05 13.2705L0.0386251 14.887V16.194L0.0378751 16.1974L0.0386251 16.2019V16.2076C0.040172 16.2179 0.0422345 16.2282 0.0448595 16.2384C0.046547 16.2686 0.0525939 16.2985 0.0627658 16.3271C0.0696564 16.34 0.0774376 16.3524 0.0861095 16.3641C0.0976876 16.3867 0.111938 16.4079 0.128531 16.4271C0.142828 16.4395 0.15825 16.4505 0.174516 16.4601C0.190688 16.4736 0.208172 16.4854 0.226735 16.4953C0.24961 16.5035 0.273328 16.5091 0.297469 16.5118C0.312656 16.5167 0.328266 16.5203 0.344016 16.5227L0.352547 16.5229L0.354328 16.5233L0.355641 16.523L3.09881 16.605H3.10242L3.10702 16.606C3.11105 16.606 3.11442 16.6038 3.11841 16.6037C3.15112 16.6023 3.18342 16.5958 3.21408 16.5843C3.22448 16.5805 3.2347 16.5762 3.24464 16.5712C3.25322 16.5671 3.26255 16.5649 3.27075 16.56L10.5508 12.1919C10.9012 12.2409 11.2545 12.2658 11.6084 12.2666C12.3982 12.267 13.1837 12.1489 13.9386 11.9162C14.2853 12.2656 14.6756 12.569 15.0997 12.819C14.8946 13.1985 14.787 13.623 14.7866 14.0544V20.9558C14.7609 21.5837 15.2471 22.1146 15.8749 22.144H21.8956C22.5233 22.1144 23.0093 21.5836 22.9836 20.9558L22.9837 14.0544ZM12.9259 6.8065C13.0147 6.31 13.1761 5.8293 13.4051 5.37991C14.3653 3.47355 16.3817 2.33594 18.5099 2.5C20.638 2.66401 22.4563 4.09722 23.113 6.12822C23.7696 8.15917 23.1345 10.3856 21.5052 11.7645C20.9375 12.2499 20.2718 12.607 19.5534 12.8117C19.1873 12.9172 18.8105 12.9816 18.4301 13.0037C18.3145 12.8467 18.29 12.6405 18.3655 12.4607C20.917 12.3187 22.8918 10.1715 22.8202 7.61711C22.7486 5.0627 20.6566 3.02945 18.1012 3.03062C16.4402 3.03658 14.9031 3.91 14.0477 5.33383C13.765 5.80384 13.5679 6.32026 13.4655 6.85914C13.4227 7.08545 13.3974 7.31467 13.3897 7.54487C13.2168 7.61589 13.0312 7.65072 12.8444 7.6472C12.8478 7.36511 12.8751 7.0839 12.9259 6.8065ZM15.4056 5.62876C15.2134 5.51936 15.0136 5.42369 14.8079 5.3425C15.7057 4.10964 17.2159 3.48001 18.7236 3.71003C20.2313 3.94005 21.4851 4.99126 21.9745 6.43576C22.464 7.88026 22.1074 9.47711 21.05 10.5762L20.1698 9.38462C19.8737 8.96804 19.3962 8.71825 18.8851 8.71262C18.374 8.71844 17.8963 8.96837 17.6003 9.38505L16.1525 11.346C15.9908 11.2575 15.8354 11.158 15.6872 11.0483C16.3457 10.6071 16.7674 9.88994 16.8327 9.1L16.833 9.09812V7.78994L16.8337 7.78455C16.8587 6.94234 16.3515 6.17659 15.4056 5.62876ZM2.79131 15.9637L0.670219 15.9003V15.2117L2.79131 15.2754V15.9637ZM3.024 14.6502L0.663 14.5795L0.635859 13.4391L0.920203 13.2686L2.69653 13.2233C2.86289 13.219 2.99733 13.0864 3.00398 12.9201L3.03375 12.1795L4.49306 12.1449C4.65956 12.1409 4.79437 12.0083 4.80098 11.8419L4.82672 11.1992L6.03516 11.1703C6.16392 11.1673 6.27792 11.0863 6.3232 10.9657L6.56498 10.3226L7.69969 9.64169C7.91386 9.85019 8.1532 10.0311 8.41223 10.1803C8.43525 10.1936 8.46052 10.205 8.48386 10.2181L2.47861 13.8212C2.32908 13.911 2.28061 14.105 2.37038 14.2545C2.46014 14.404 2.65411 14.4525 2.80364 14.3627L9.17986 10.5369C9.32691 10.5915 9.47911 10.6397 9.63483 10.6836L3.024 14.6502ZM10.1641 11.6874L3.42291 15.7321V15.1476L10.1641 11.1027L10.1641 11.6874ZM8.72948 9.63428C8.01872 9.22187 7.6238 8.67789 7.61419 8.10147V8.07695C7.61573 7.45098 8.07905 6.81433 8.88891 6.32805C10.0379 5.70044 11.3438 5.41825 12.6494 5.51542C12.5189 5.83497 12.4173 6.16562 12.3458 6.50331C12.2377 6.53875 12.1334 6.58506 12.0346 6.6415C11.7535 6.78526 11.5703 7.06787 11.5537 7.38315C11.569 7.67748 11.7406 7.9412 12.0035 8.07442C12.1456 8.15565 12.3008 8.21167 12.462 8.24003C12.5965 8.26769 12.7334 8.28156 12.8707 8.28137C13.2071 8.28536 13.5387 8.20019 13.8316 8.03453L13.8634 8.01372C14.1219 7.87464 14.2919 7.61359 14.3145 7.3209C14.3188 7.13387 14.2506 6.95242 14.1243 6.81442C14.1992 6.49262 14.3138 6.18137 14.4653 5.8877C14.6805 5.96603 14.8889 6.06203 15.0883 6.17477C15.82 6.59856 16.2144 7.15933 16.2019 7.77512L16.2016 7.77653V7.7943C16.1751 8.40555 15.7247 9.00433 14.9329 9.48006C14.7179 9.60765 14.4939 9.71959 14.2627 9.81498C13.9112 9.95781 13.548 10.07 13.1772 10.1505C13.1714 10.1513 13.1655 10.1523 13.16 10.1536C11.5639 10.495 9.86634 10.2962 8.72948 9.63428ZM12.2289 7.28992C12.2249 7.34261 12.2244 7.39689 12.2217 7.45023C12.2017 7.43144 12.1889 7.40626 12.1853 7.37903C12.1896 7.34533 12.2049 7.31397 12.2289 7.28992ZM13.9245 11.2624C12.9175 11.5965 11.8498 11.7072 10.7957 11.5867V10.9043C11.0665 10.933 11.3387 10.9476 11.6111 10.948C12.1704 10.9481 12.7283 10.89 13.2756 10.7747C13.2827 10.7738 13.2895 10.7724 13.2963 10.771C13.7086 10.6824 14.1123 10.5579 14.503 10.3991C14.7629 10.2919 15.0147 10.166 15.2564 10.0224C15.5993 9.82164 15.9108 9.57151 16.181 9.28005C16.0894 9.81742 15.6746 10.3388 14.972 10.7767C14.9618 10.7843 14.9526 10.7895 14.9325 10.802C14.6135 10.9902 14.2756 11.1445 13.9245 11.2624ZM14.5949 11.675C14.7757 11.5966 14.9526 11.5079 15.1261 11.411C15.3293 11.578 15.5461 11.7277 15.7743 11.8584L15.4528 12.2939C15.1461 12.118 14.8586 11.9105 14.5949 11.675ZM21.8957 21.5125H15.875C15.5967 21.482 15.3938 21.2347 15.4183 20.9558V14.0544C15.4164 13.6374 15.5481 13.2308 15.7939 12.8939L18.1084 9.76056C18.2813 9.50055 18.5729 9.34431 18.8851 9.34422C19.1974 9.34412 19.489 9.50031 19.662 9.76023L20.5768 10.9989C20.2327 11.2638 19.8478 11.4711 19.4372 11.6125C18.9737 11.3735 18.4091 11.4597 18.0381 11.8262C17.9948 11.8696 17.9553 11.9167 17.9203 11.9671C17.5687 12.4413 17.6194 13.102 18.0393 13.5169C18.0553 13.5335 18.0722 13.5491 18.0899 13.5638C18.3075 13.7595 18.5898 13.8677 18.8825 13.8673C19.2033 13.867 19.5108 13.7388 19.7367 13.5111C19.7768 13.4689 19.8141 13.4242 19.8483 13.3772C20.4977 13.1759 21.1067 12.8621 21.6476 12.4501L21.9827 12.9032C22.2252 13.2378 22.3546 13.6411 22.3521 14.0544V20.9558C22.3765 21.2346 22.1738 21.4818 21.8957 21.5125Z" fill="#333333"/>
</g>
<defs>
<clipPath id="clip0">
<rect width="24" height="24" fill="white"/>
</clipPath>
</defs>
</svg>
