<svg width="193" height="27" viewBox="0 0 193 27" fill="none" xmlns="http://www.w3.org/2000/svg">
<g clip-path="url(#clip0)">
<path d="M131.401 26.5536C131.095 26.3767 130.661 26.0872 130.452 25.8781C129.197 24.704 126.415 19.1713 126.415 17.8525C126.415 17.2735 126.833 17.1127 127.476 17.4504C128.104 17.7721 128.876 17.756 130.774 17.37C134.939 16.5176 138.188 14.6358 139.137 12.5128C139.442 11.8373 139.523 11.3709 139.523 10.2933C139.523 9.08708 139.459 8.79758 139.008 7.84867C138.397 6.52983 137.48 5.51658 136.081 4.59983C132.784 2.4125 127.01 1.19017 122.121 1.60833C118.454 1.93 116.508 2.49292 115.462 3.53833C114.385 4.61592 114.272 5.64525 115.028 7.36617C115.43 8.26683 115.301 8.37942 114.738 7.6235C114.352 7.12492 114.272 6.83542 114.224 5.87042C114.111 3.87608 114.98 2.78242 117.247 2.0265C122.684 0.241249 130.838 0.916749 135.985 3.58658C137.641 4.45508 139.507 6.25642 140.166 7.63958C140.568 8.45983 140.633 8.79758 140.649 9.97167C140.649 11.1297 140.584 11.4835 140.231 12.2394C139.475 13.8317 138.284 14.9092 136.097 16.0029C134.151 16.9518 131.192 17.8043 128.795 18.0938C128.281 18.1581 127.862 18.2546 127.862 18.3189C127.879 18.6406 128.377 20.2167 128.876 21.4713C130.388 25.2669 131.739 26.7144 133.476 26.4571C134.071 26.3767 134.183 26.3927 134.022 26.5536C133.669 26.9074 132.044 26.9074 131.401 26.5536Z" fill="#050505"/>
<path d="M165.337 25.2025C165.337 25.0739 165.481 24.8487 165.658 24.6879C165.835 24.527 165.98 24.2375 165.98 24.0606C165.98 23.8676 166.463 23.0634 167.042 22.2754C168.248 20.6349 169.727 17.7399 169.647 17.1769C169.615 16.9839 169.486 16.7909 169.341 16.7588C168.955 16.6944 166.832 18.4314 164.709 20.5384C162.731 22.5327 161.509 23.3369 161.155 22.9187C160.994 22.7257 161.075 22.4844 161.605 21.6803C162.41 20.4419 163.407 18.3349 163.519 17.5951C163.584 17.1769 163.551 17.0322 163.326 16.9518C162.892 16.7749 162.152 17.2413 160.27 18.8657C158.501 20.3936 157.633 21.3264 156.732 22.6453C156.443 23.0634 155.944 23.4977 155.494 23.7389L154.722 24.1249V23.7389C154.722 22.9509 158.067 17.8685 159.836 15.9868C160.27 15.5204 160.93 15.1665 161.091 15.3113C161.123 15.3595 160.785 15.7777 160.335 16.2602C159 17.6916 157.279 20.4258 157.713 20.4258C157.761 20.4258 158.292 19.9915 158.871 19.4447C160.254 18.1902 162.779 16.5175 163.793 16.1798C165.385 15.649 165.546 16.1959 164.452 18.4154C163.342 20.6509 163.519 20.8118 165.353 19.2517C167.894 17.0804 170.869 15.1183 171.609 15.1183C171.947 15.1183 172.06 15.6651 171.77 15.842C171.674 15.9064 171.175 16.7909 170.66 17.8203C170.146 18.8496 169.341 20.3132 168.891 21.0691C168.167 22.2754 167.894 22.9991 168.167 22.9991C168.216 22.9991 168.907 22.7257 169.727 22.3719C170.548 22.0341 172.076 21.4712 173.137 21.1334C174.199 20.7957 175.099 20.4901 175.131 20.474C175.18 20.4419 175.083 20.1684 174.938 19.8629C174.102 18.0937 175.421 16.4371 179.41 14.2337C182.063 12.7701 185.698 11.8051 186.229 12.4484C186.486 12.754 186.277 13.0757 185.586 13.4456C185.2 13.6386 185.007 13.6386 184.138 13.4134C183.205 13.1722 183.061 13.1722 182.128 13.4295C181.002 13.7351 179.49 14.5554 178.043 15.6812C176.241 17.0644 175.807 18.0294 176.418 19.2999C176.611 19.6859 176.756 20.0237 176.756 20.0398C176.756 20.0559 176.434 20.1524 176.016 20.2649C175.566 20.3936 175.341 20.5223 175.437 20.6188C175.646 20.8279 176.917 20.474 176.917 20.2006C176.917 19.9594 177.206 19.8789 179.329 19.5251C180.986 19.2517 181.452 19.2356 181.098 19.4608C180.905 19.5894 180.905 19.6216 181.179 19.6216C181.356 19.6377 180.793 19.9915 179.94 20.4258C179.088 20.86 178.348 21.2943 178.284 21.3908C178.236 21.4712 178.3 21.7124 178.429 21.9054C178.863 22.5327 178.766 23.2564 178.171 23.6907C177.126 24.4466 175.63 24.9613 174.15 25.0739C172.622 25.1864 172.413 25.1543 172.413 24.8648C172.413 24.6235 172.767 24.334 174.665 22.9509C175.501 22.3397 176.177 21.7607 176.145 21.6481C176.113 21.5516 175.952 21.3264 175.791 21.1656C175.485 20.86 175.469 20.86 174.472 21.1495C171.995 21.8894 168.972 23.2886 166.961 24.6235C165.739 25.4277 165.337 25.5724 165.337 25.2025ZM176.306 24.2375C176.788 24.0124 177.238 23.7229 177.287 23.562C177.399 23.2725 176.949 22.3558 176.692 22.3558C176.338 22.3558 173.861 24.3662 173.861 24.6557C173.861 24.913 175.341 24.6557 176.306 24.2375ZM178.847 20.4258C179.78 19.9272 179.635 19.8307 178.364 20.1202C177.319 20.3454 177.238 20.3936 177.335 20.667C177.48 21.0209 177.833 20.9565 178.847 20.4258ZM180.728 19.6699C180.664 19.6216 180.568 19.6216 180.503 19.6699C180.455 19.7342 180.503 19.7824 180.616 19.7824C180.728 19.7824 180.777 19.7342 180.728 19.6699Z" fill="#050505"/>
<path d="M135.856 24.2858C135.293 23.8355 135.293 23.16 135.856 21.7447C136.338 20.4902 137.014 19.3965 138.349 17.6273L139.314 16.3728L138.864 16.0029C138.156 15.44 138.413 15.1183 139.571 15.1183C140.231 15.1183 140.601 15.0379 140.729 14.8771C140.842 14.7484 141.196 14.5554 141.517 14.4589C142.032 14.2981 142.209 14.3302 142.772 14.6197C143.335 14.9092 143.849 14.9736 146.358 15.054C149.157 15.1666 149.286 15.1505 149.72 14.8288C150.444 14.2981 150.926 14.2337 151.698 14.6037C152.229 14.8449 152.888 14.9575 154.448 15.0379C155.574 15.1022 156.491 15.2148 156.491 15.2952C156.491 15.3757 156.201 15.44 155.864 15.44C155.124 15.44 155.027 15.5526 154.963 16.4211C154.786 18.721 150.234 23.0474 146.712 24.2697C145.474 24.6879 145.216 24.6879 144.686 24.2697C144.171 23.8677 144.155 23.3852 144.589 22.0985C144.991 20.9244 145.876 19.4287 147.179 17.7077L148.176 16.3889L147.661 15.9064C146.793 15.1183 146.101 15.2952 146.069 16.3085C146.037 17.2252 145.377 18.4476 144.251 19.686C142.032 22.1146 138.88 24.1893 136.95 24.511C136.419 24.6075 136.21 24.5592 135.856 24.2858ZM138.526 23.6264C139.893 22.9509 141.051 22.0502 142.659 20.4258C144.589 18.4637 145.586 16.3567 144.798 15.9547C144.219 15.6491 143.27 15.5847 142.289 15.7777C141.405 15.9547 141.196 16.0833 140.408 16.8714C139.909 17.37 139.185 18.2063 138.783 18.7371C137.432 20.4902 135.936 23.4173 136.129 23.9159C136.274 24.3019 137.464 24.1572 138.526 23.6264ZM147.114 23.8033C149.205 22.8705 152.534 19.7986 153.403 18.0294C153.982 16.8714 154.062 16.1637 153.644 15.9547C152.599 15.4239 150.637 15.6652 149.752 16.4372C148.98 17.1287 147.725 18.5762 147.034 19.6056C146.101 21.037 145.072 23.1278 145.072 23.6425C145.072 24.1089 145.104 24.125 145.763 24.125C146.133 24.125 146.744 23.9802 147.114 23.8033Z" fill="#050505"/>
<path d="M44.3739 24.3823C44.3257 24.3341 42.8299 23.7872 41.0447 23.1761L37.7958 22.0502L36.8791 22.3397C33.9037 23.3047 31.2178 24.125 31.1052 24.125C31.0408 24.125 31.0408 22.5488 31.0891 20.6188L31.2017 17.1127L29.6577 14.9414C28.8053 13.7512 27.8563 12.4485 27.5508 12.0303L27.0039 11.2744L28.8213 10.7115C29.8185 10.4059 31.3625 9.9395 32.2471 9.66608L33.8554 9.18358L35.9463 6.35291C37.0882 4.80891 38.0532 3.53833 38.1014 3.53833C38.1658 3.53833 38.6643 4.22991 39.2433 5.08233C39.8223 5.91866 40.723 7.22141 41.2377 7.96125L42.2027 9.32833L45.4193 10.3898C47.2046 10.9849 48.7003 11.5157 48.7808 11.5639C48.8451 11.6282 47.9444 12.9149 46.7864 14.4428L44.6956 17.2092L44.583 20.844C44.5187 22.8383 44.4222 24.4306 44.3739 24.3823ZM41.8167 19.493C41.8167 18.528 41.8649 17.0805 41.9132 16.2763L42.0258 14.7967L43.4893 14.7806C44.7921 14.7806 44.9208 14.7484 44.6313 14.5554C44.4543 14.4267 43.0873 13.3813 41.5754 12.2233C40.0797 11.0492 38.6483 9.97166 38.4231 9.79475L37.9888 9.48916L36.1714 10.8241C35.1582 11.5478 33.582 12.6897 32.6492 13.3492L30.9765 14.5554L32.4562 14.6037L33.9358 14.6519V17.8525V21.0531L34.7078 21.1174C35.126 21.1496 36.8952 21.1817 38.6483 21.1978L41.8167 21.23V19.493Z" fill="#050505"/>
<path d="M185.923 23.8999C185.923 23.8677 186.1 23.5139 186.325 23.144C186.985 21.9699 186.776 21.021 185.698 20.3133C184.958 19.8308 184.106 19.6217 182.787 19.6056C182.176 19.5896 181.806 19.5413 181.967 19.5091C182.192 19.4448 182.224 19.3966 182.063 19.3001C181.919 19.2196 182.208 19.0588 182.884 18.8497C184.524 18.3512 185.151 18.3029 183.832 18.7693L182.626 19.2036L183.591 19.3322C186.052 19.6539 187.709 21.407 187.049 22.9831C186.84 23.4978 185.923 24.2376 185.923 23.8999Z" fill="#050505"/>
<path d="M121.558 23.3047C121.397 23.2243 121.268 23.0152 121.268 22.8704C121.268 21.8733 124.774 16.1959 129.455 9.6017C130.388 8.28286 130.774 7.62345 130.709 7.39828C130.597 6.93186 130.902 6.81928 131.272 7.1892C131.594 7.51086 131.578 7.52695 128.699 11.8373C124.195 18.5923 122.957 20.7153 122.491 22.5327C122.265 23.4173 122.04 23.6103 121.558 23.3047Z" fill="#050505"/>
<path d="M185.248 18.2224C185.36 18.1741 185.505 18.1902 185.553 18.2385C185.618 18.2867 185.521 18.335 185.344 18.3189C185.167 18.3189 185.119 18.2706 185.248 18.2224Z" fill="#050505"/>
<path d="M185.972 18.0616C186.036 18.0133 186.132 18.0133 186.197 18.0616C186.245 18.1259 186.197 18.1742 186.084 18.1742C185.972 18.1742 185.923 18.1259 185.972 18.0616Z" fill="#050505"/>
<path d="M78.5188 24.125C75.3826 23.6586 73.2757 20.6349 73.8225 17.3861C74.2728 14.668 76.3637 12.8023 79.1782 12.5933C82.1215 12.3681 84.534 14.0247 85.3381 16.791C86.078 19.4287 84.7913 22.388 82.3788 23.6264C81.8481 23.8998 79.8055 24.3341 79.4517 24.2698C79.4034 24.2537 78.9852 24.1893 78.5188 24.125ZM80.5453 21.1657C81.5747 20.6349 82.0572 19.7182 82.0411 18.3028C82.0411 16.5819 81.0761 15.44 79.6286 15.44C78.165 15.44 77.2 16.6302 77.2 18.4315C77.2161 20.5384 78.9692 21.9859 80.5453 21.1657Z" fill="#76B729"/>
<path d="M110.766 24.1089C108.064 23.7068 106.279 21.5034 106.279 18.5762C106.279 14.9414 108.997 12.3037 112.455 12.5932C114.417 12.7541 115.977 13.7191 116.845 15.3113C117.28 16.0833 117.328 16.3085 117.328 17.6917V19.2196L113.5 19.2678L109.672 19.3L109.769 19.6699C110.364 21.6964 113.098 22.1628 114.497 20.4902L114.948 19.9272L116.025 20.6671C117.247 21.5195 117.247 21.5517 116.041 22.6614C114.658 23.932 112.857 24.4306 110.766 24.1089ZM114.031 16.8714C114.031 16.7749 113.918 16.4532 113.773 16.1637C113.146 14.8288 110.975 14.7967 110.171 16.1155C109.608 17.0322 109.64 17.0483 111.94 17.0483C113.355 17.0483 114.031 16.984 114.031 16.8714Z" fill="#76B729"/>
<path d="M10.9688 23.9642C9.58566 23.6747 6.75499 22.0342 6.75499 21.5356C6.75499 21.4391 7.23749 20.9083 7.84866 20.3454L8.92624 19.3161L9.40874 19.7664C11.0332 21.2783 12.8345 21.616 13.9925 20.6349C14.3785 20.3133 14.475 20.1042 14.475 19.6056C14.475 18.6567 13.9925 18.2707 11.8052 17.4504C8.95841 16.3728 7.88082 15.1827 7.88082 13.0275C7.88082 10.5346 9.58566 9.00668 12.5128 8.87801C14.3624 8.78151 16.1798 9.32835 17.4343 10.3094L17.8525 10.6472L17.1931 11.4674C16.8232 11.9338 16.405 12.4646 16.2442 12.6737L15.9386 13.0436L15.0379 12.4324C14.2659 11.9338 13.9442 11.8213 13.1079 11.773C12.1751 11.7087 12.0464 11.7408 11.6765 12.1108C10.808 12.9793 11.3387 13.8799 12.9792 14.3946C14.4428 14.8449 16.1155 15.6491 16.7749 16.2442C17.7882 17.1288 18.0937 17.8686 18.0937 19.4769C18.0937 20.7314 18.0455 20.9244 17.6112 21.6321C17.0483 22.5488 15.9064 23.3852 14.7484 23.7229C13.6869 24.0446 11.8695 24.1572 10.9688 23.9642Z" fill="#76B729"/>
<path d="M23.3208 23.9803C22.1307 23.5943 21.4069 22.9831 20.9727 21.9538C20.7475 21.4391 20.6671 20.6993 20.6188 18.3028L20.5545 15.2792H19.9272H19.3V13.9282V12.5611L19.9755 12.5128C20.6832 12.4646 20.7153 12.4003 21.1335 10.5828C21.23 10.1325 21.23 10.1325 22.6775 10.1325H24.125V11.3388V12.545H25.4921H26.8592V13.9121V15.2792H25.4921H24.125V17.9008C24.125 20.9244 24.2537 21.3265 25.1543 21.1818C25.4277 21.1335 25.7655 21.0531 25.9102 20.9888C26.1032 20.9244 26.2802 21.1657 26.6662 22.0503C26.9557 22.6775 27.1808 23.2565 27.1808 23.3208C27.1808 23.739 24.1411 24.2537 23.3208 23.9803Z" fill="#76B729"/>
<path d="M59.1867 16.6463V9.32837H60.9558H62.725V12.2234V15.1184H65.4592H68.1933V12.2234V9.32837H69.8821H71.5708V16.6463V23.9642H69.8821H68.1933V20.9084V17.8525H65.4592H62.725V20.9084V23.9642H60.9558H59.1867V16.6463Z" fill="#76B729"/>
<path d="M87.4933 18.4154V12.8666H88.9408H90.3722L90.4848 13.4456L90.5813 14.0085L91.0156 13.6225C92.4792 12.2394 94.6343 12.2233 96.1301 13.5743L96.8538 14.2337L97.4811 13.6386C98.4621 12.7058 100.119 12.3198 101.502 12.7058C102.306 12.931 103.464 13.9925 103.914 14.9092C104.284 15.649 104.3 15.842 104.349 19.8307L104.397 23.9641H102.708H101.003V20.5545C101.003 16.9196 100.891 16.0833 100.312 15.6812C99.7971 15.3274 98.8803 15.3756 98.2531 15.8099L97.7062 16.1798L97.658 20.072L97.6258 23.9641H95.9371H94.2483V20.5545C94.2483 16.9196 94.1357 16.0833 93.5567 15.6812C93.0582 15.3435 92.0449 15.3756 91.4177 15.7777L90.8708 16.1155V20.0398V23.9641H89.1821H87.4933V18.4154Z" fill="#76B729"/>
<path d="M49.5367 18.1742V12.545H50.9681H52.3995L52.5121 13.1723L52.6246 13.8156L53.0911 13.2688C53.7344 12.529 54.7798 12.143 55.7609 12.2877C56.1791 12.336 56.5651 12.4485 56.6294 12.5129C56.6776 12.5772 56.5329 13.2527 56.3077 14.0247C55.9539 15.1666 55.8413 15.3918 55.6483 15.2792C55.0854 14.9254 53.7505 15.231 53.1232 15.8582C52.9624 16.019 52.9141 16.968 52.9141 19.9273V23.8034H51.2254H49.5367V18.1742Z" fill="#76B729"/>
<path d="M36.1875 17.1288V15.44H37.8762H39.565V17.1288V18.8175H37.8762H36.1875V17.1288Z" fill="#76B729"/>
</g>
<defs>
<clipPath id="clip0">
<rect width="193" height="26.8592" fill="white"/>
</clipPath>
</defs>
</svg>
