<svg width="20" height="20" viewBox="0 0 20 20" fill="none" xmlns="http://www.w3.org/2000/svg">
<path d="M3.0918 16.5665L4.2668 17.7415L12.3168 9.69985L12.5001 9.86652C13.1418 10.5165 14.1918 10.5165 14.8418 9.86652L18.4835 6.24985L17.7168 5.46652L15.0001 8.17485L14.2168 7.37485L16.9251 4.67485L16.1585 3.90819L13.4585 6.61652L12.6585 5.83319L15.3585 3.11652L14.5835 2.34985L10.9668 5.99152C10.8123 6.14489 10.6898 6.32729 10.6061 6.52824C10.5225 6.72918 10.4794 6.94469 10.4794 7.16235C10.4794 7.38001 10.5225 7.59552 10.6061 7.79647C10.6898 7.99741 10.8123 8.17982 10.9668 8.33319L11.1335 8.51652L3.0918 16.5665Z" fill="#333333" fill-opacity="0.8"/>
<path d="M3.25904 7.63317L6.75071 11.1165L9.10904 8.74984L3.25904 2.9165C2.63475 3.5426 2.28418 4.39068 2.28418 5.27484C2.28418 6.15899 2.63475 7.00708 3.25904 7.63317Z" fill="#77B231"/>
<path d="M16.909 16.5665L11.1757 10.8332L10.0007 12.0082L15.734 17.7415L16.909 16.5665Z" fill="#77B231"/>
</svg>