<svg width="70" height="70" viewBox="0 0 70 70" fill="none" xmlns="http://www.w3.org/2000/svg">
<path d="M27.72 25.5491C27.137 23.5741 25.5546 23.7906 24.4727 24.7104C21.8076 27.1722 18.3375 32.3394 20.5584 39.7799C22.4184 46.0833 30.1579 50.1143 30.1579 50.1143H21.1357C21.1357 50.1143 16.4771 44.8929 16.0607 38.7519C15.5333 30.9877 18.6428 26.091 22.2518 22.8988C25.6387 19.8959 28.859 19.0032 28.859 19.0032L35.4465 40.5865L42.0339 19.0032C42.0339 19.0032 45.2543 19.8959 48.6412 22.8988C52.2502 26.091 55.3597 30.9877 54.8322 38.7519C54.4158 44.8929 49.7572 50.1143 49.7572 50.1143H40.735C40.735 50.1143 48.4739 46.0833 50.3346 39.7799C52.5555 32.3403 49.0853 27.1731 46.4202 24.7104C45.3375 23.7906 43.7551 23.5741 43.173 25.5491C41.1741 31.8525 35.4473 49.913 35.4473 49.913C35.4473 49.913 29.7204 31.8464 27.7216 25.5491H27.72Z" fill="#4D4F4A"/>
</svg>
