<svg width="78" height="14" viewBox="0 0 78 14" fill="none" xmlns="http://www.w3.org/2000/svg">
<path d="M8.97656 8.66357C8.97656 10.075 8.61458 11.1766 7.89062 11.9683C7.16667 12.7599 6.15885 13.1558 4.86719 13.1558C4.0599 13.1558 3.34635 12.9735 2.72656 12.6089C2.10677 12.2443 1.63021 11.7209 1.29688 11.0386C0.963542 10.3563 0.796875 9.56462 0.796875 8.66357C0.796875 7.26253 1.15625 6.16878 1.875 5.38232C2.59375 4.59587 3.60677 4.20264 4.91406 4.20264C6.16406 4.20264 7.15365 4.60628 7.88281 5.41357C8.61198 6.21566 8.97656 7.29899 8.97656 8.66357ZM2.6875 8.66357C2.6875 10.6584 3.42448 11.6558 4.89844 11.6558C6.35677 11.6558 7.08594 10.6584 7.08594 8.66357C7.08594 6.68962 6.35156 5.70264 4.88281 5.70264C4.11198 5.70264 3.55208 5.95785 3.20312 6.46826C2.85938 6.97868 2.6875 7.71045 2.6875 8.66357Z" fill="#03A9F4"/>
<path d="M14.3125 11.6714C14.7604 11.6714 15.2083 11.6011 15.6562 11.4604V12.8433C15.4531 12.9318 15.1901 13.0047 14.8672 13.062C14.5495 13.1245 14.2188 13.1558 13.875 13.1558C12.1354 13.1558 11.2656 12.2391 11.2656 10.4058V5.74951H10.0859V4.93701L11.3516 4.26514L11.9766 2.43701H13.1094V4.35889H15.5703V5.74951H13.1094V10.3745C13.1094 10.8172 13.2188 11.1453 13.4375 11.3589C13.6615 11.5672 13.9531 11.6714 14.3125 11.6714Z" fill="#03A9F4"/>
<path d="M21.1641 13.1558C19.8203 13.1558 18.7682 12.7651 18.0078 11.9839C17.2526 11.1974 16.875 10.1167 16.875 8.7417C16.875 7.33024 17.2266 6.22087 17.9297 5.41357C18.6328 4.60628 19.599 4.20264 20.8281 4.20264C21.9688 4.20264 22.8698 4.54899 23.5312 5.2417C24.1927 5.93441 24.5234 6.88753 24.5234 8.10107V9.09326H18.7656C18.7917 9.9318 19.0182 10.5776 19.4453 11.0308C19.8724 11.4787 20.474 11.7026 21.25 11.7026C21.7604 11.7026 22.2344 11.6558 22.6719 11.562C23.1146 11.4631 23.5885 11.3016 24.0938 11.0776V12.5698C23.6458 12.7834 23.1927 12.9344 22.7344 13.0229C22.276 13.1115 21.7526 13.1558 21.1641 13.1558ZM20.8281 5.59326C20.2448 5.59326 19.776 5.77816 19.4219 6.14795C19.0729 6.51774 18.8646 7.0568 18.7969 7.76514H22.7188C22.7083 7.0516 22.5365 6.51253 22.2031 6.14795C21.8698 5.77816 21.4115 5.59326 20.8281 5.59326Z" fill="#03A9F4"/>
<path d="M28.4453 12.9995H26.6094V0.843262H28.4453V12.9995Z" fill="#03A9F4"/>
<path d="M34.8516 13.1558C33.5078 13.1558 32.4557 12.7651 31.6953 11.9839C30.9401 11.1974 30.5625 10.1167 30.5625 8.7417C30.5625 7.33024 30.9141 6.22087 31.6172 5.41357C32.3203 4.60628 33.2865 4.20264 34.5156 4.20264C35.6562 4.20264 36.5573 4.54899 37.2188 5.2417C37.8802 5.93441 38.2109 6.88753 38.2109 8.10107V9.09326H32.4531C32.4792 9.9318 32.7057 10.5776 33.1328 11.0308C33.5599 11.4787 34.1615 11.7026 34.9375 11.7026C35.4479 11.7026 35.9219 11.6558 36.3594 11.562C36.8021 11.4631 37.276 11.3016 37.7812 11.0776V12.5698C37.3333 12.7834 36.8802 12.9344 36.4219 13.0229C35.9635 13.1115 35.4401 13.1558 34.8516 13.1558ZM34.5156 5.59326C33.9323 5.59326 33.4635 5.77816 33.1094 6.14795C32.7604 6.51774 32.5521 7.0568 32.4844 7.76514H36.4062C36.3958 7.0516 36.224 6.51253 35.8906 6.14795C35.5573 5.77816 35.099 5.59326 34.5156 5.59326Z" fill="#03A9F4"/>
<path d="M46.3906 12.9995L46.1328 11.8667H46.0391C45.7839 12.2677 45.4193 12.5828 44.9453 12.812C44.4766 13.0412 43.9401 13.1558 43.3359 13.1558C42.2891 13.1558 41.5078 12.8953 40.9922 12.3745C40.4766 11.8537 40.2188 11.0646 40.2188 10.0073V4.35889H42.0703V9.68701C42.0703 10.3485 42.2057 10.8459 42.4766 11.1792C42.7474 11.5073 43.1719 11.6714 43.75 11.6714C44.5208 11.6714 45.0859 11.4422 45.4453 10.9839C45.8099 10.5203 45.9922 9.74691 45.9922 8.66357V4.35889H47.8359V12.9995H46.3906Z" fill="#03A9F4"/>
<path d="M56.2578 10.5386C56.2578 11.3823 55.9505 12.0308 55.3359 12.4839C54.7214 12.9318 53.8411 13.1558 52.6953 13.1558C51.5443 13.1558 50.6198 12.9813 49.9219 12.6323V11.0464C50.9375 11.5151 51.8828 11.7495 52.7578 11.7495C53.888 11.7495 54.4531 11.4084 54.4531 10.7261C54.4531 10.5073 54.3906 10.325 54.2656 10.1792C54.1406 10.0334 53.9349 9.88232 53.6484 9.72607C53.362 9.56982 52.9635 9.39274 52.4531 9.19482C51.4583 8.80941 50.7839 8.42399 50.4297 8.03857C50.0807 7.65316 49.9062 7.15316 49.9062 6.53857C49.9062 5.79899 50.2031 5.22607 50.7969 4.81982C51.3958 4.40837 52.2083 4.20264 53.2344 4.20264C54.25 4.20264 55.2109 4.40837 56.1172 4.81982L55.5234 6.20264C54.5911 5.81722 53.8073 5.62451 53.1719 5.62451C52.2031 5.62451 51.7188 5.90055 51.7188 6.45264C51.7188 6.72347 51.8438 6.95264 52.0938 7.14014C52.349 7.32764 52.901 7.58545 53.75 7.91357C54.4635 8.18962 54.9818 8.44222 55.3047 8.67139C55.6276 8.90055 55.8672 9.16618 56.0234 9.46826C56.1797 9.76514 56.2578 10.1219 56.2578 10.5386Z" fill="#03A9F4"/>
<path d="M57.9766 12.0229C57.9766 11.6427 58.0755 11.3511 58.2734 11.1479C58.4714 10.9448 58.7578 10.8433 59.1328 10.8433C59.513 10.8433 59.8021 10.95 60 11.1636C60.1979 11.3719 60.2969 11.6584 60.2969 12.0229C60.2969 12.3927 60.1953 12.687 59.9922 12.9058C59.7943 13.1193 59.5078 13.2261 59.1328 13.2261C58.7578 13.2261 58.4714 13.1193 58.2734 12.9058C58.0755 12.6922 57.9766 12.3979 57.9766 12.0229Z" fill="#03A9F4"/>
<path d="M67.0391 4.20264C67.4089 4.20264 67.7135 4.22868 67.9531 4.28076L67.7734 5.9917C67.513 5.9292 67.2422 5.89795 66.9609 5.89795C66.2266 5.89795 65.6302 6.13753 65.1719 6.6167C64.7188 7.09587 64.4922 7.71826 64.4922 8.48389V12.9995H62.6562V4.35889H64.0938L64.3359 5.88232H64.4297C64.7161 5.3667 65.0885 4.95785 65.5469 4.65576C66.0104 4.35368 66.5078 4.20264 67.0391 4.20264Z" fill="#03A9F4"/>
<path d="M75.6562 12.9995L75.3984 11.8667H75.3047C75.0495 12.2677 74.6849 12.5828 74.2109 12.812C73.7422 13.0412 73.2057 13.1558 72.6016 13.1558C71.5547 13.1558 70.7734 12.8953 70.2578 12.3745C69.7422 11.8537 69.4844 11.0646 69.4844 10.0073V4.35889H71.3359V9.68701C71.3359 10.3485 71.4714 10.8459 71.7422 11.1792C72.013 11.5073 72.4375 11.6714 73.0156 11.6714C73.7865 11.6714 74.3516 11.4422 74.7109 10.9839C75.0755 10.5203 75.2578 9.74691 75.2578 8.66357V4.35889H77.1016V12.9995H75.6562Z" fill="#03A9F4"/>
</svg>