<svg width="261" height="260" viewBox="0 0 261 260" fill="none" xmlns="http://www.w3.org/2000/svg">
<path d="M127.121 7.73872C128.71 5.42043 132.132 5.42043 133.72 7.73872L178.991 73.7936C179.511 74.5526 180.277 75.109 181.159 75.3691L257.971 98.0117C260.666 98.8064 261.724 102.06 260.01 104.288L211.177 167.754C210.616 168.484 210.323 169.384 210.349 170.304L212.55 250.352C212.628 253.162 209.86 255.173 207.212 254.231L131.761 227.401C130.894 227.093 129.948 227.093 129.081 227.401L53.6301 254.231C50.9821 255.173 48.2142 253.162 48.2914 250.352L50.4931 170.304C50.5184 169.384 50.2258 168.484 49.6648 167.754L0.832118 104.288C-0.881732 102.06 0.175507 98.8064 2.87131 98.0117L79.6826 75.3691C80.5651 75.109 81.3309 74.5526 81.8511 73.7936L127.121 7.73872Z" fill="#313131"/>
<path d="M163.872 194C163.872 194.552 163.424 195 162.872 195H95.6465C95.0942 195 94.6465 194.552 94.6465 194V134.125C94.6465 133.573 94.1987 133.125 93.6465 133.125H72.8774C71.9292 133.125 71.5134 131.929 72.2573 131.341L130.236 85.5058C130.608 85.2113 131.136 85.2194 131.5 85.525L187.901 132.969C188.615 133.569 188.191 134.734 187.258 134.734H164.872C164.32 134.734 163.872 135.182 163.872 135.734V194Z" fill="white"/>
<rect x="115.79" y="141.463" width="28.9562" height="30.8644" rx="1" fill="#77B231"/>
</svg>
