<svg width="24" height="24" viewBox="0 0 24 24" fill="none" xmlns="http://www.w3.org/2000/svg">
<path d="M10.323 14.1406L10.0283 14.73C9.59974 15.5896 9.37615 16.5367 9.375 17.4971V21.75C9.37545 22.1477 9.53363 22.529 9.81483 22.8102C10.096 23.0914 10.4773 23.2496 10.875 23.25H16.5C16.8977 23.2496 17.279 23.0914 17.5602 22.8102C17.8414 22.529 17.9996 22.1477 18 21.75V17.0625C18.0001 15.9076 17.8359 14.7586 17.5125 13.65L16.0313 8.57147V7.125C16.0326 6.91215 16.1134 6.70748 16.2578 6.55115C16.4023 6.39482 16.5999 6.2981 16.812 6.27998C16.9058 6.27227 16.9933 6.22955 17.0571 6.16031C17.1209 6.09107 17.1563 6.00038 17.1563 5.90625C17.1555 5.23515 16.8886 4.59176 16.414 4.11722C15.9395 3.64268 15.2961 3.37576 14.625 3.375H8.625C8.52555 3.375 8.43016 3.41451 8.35984 3.48484C8.28951 3.55516 8.25 3.65054 8.25 3.75V5.25C8.25 5.34946 8.28951 5.44484 8.35984 5.51516C8.43016 5.58549 8.52555 5.625 8.625 5.625H9.73786C9.67588 6.65083 9.35801 7.64481 8.81325 8.51625L7.932 9.92625C7.89652 9.98301 7.87689 10.0482 7.87513 10.1152C7.87337 10.1821 7.88956 10.2482 7.92201 10.3068C7.95446 10.3653 8.00199 10.4141 8.05967 10.4481C8.11734 10.4821 8.18306 10.5 8.25 10.5H9.75C9.80969 10.5 9.86852 10.4858 9.9216 10.4584C9.97467 10.4311 10.0205 10.3915 10.0552 10.343L10.818 9.27506C11.1559 8.80266 11.4275 8.28613 11.625 7.73991V8.625C11.6227 10.5394 11.1771 12.4273 10.323 14.1406ZM17.25 17.0625V21.75C17.2498 21.9488 17.1707 22.1395 17.0301 22.2801C16.8895 22.4207 16.6988 22.4998 16.5 22.5H10.875C10.6762 22.4998 10.4855 22.4207 10.3449 22.2801C10.2043 22.1395 10.1252 21.9488 10.125 21.75V17.4971C10.126 16.6532 10.3225 15.8209 10.699 15.0656L10.9937 14.4762C11.8432 12.7719 12.3126 10.9034 12.3695 9H15.375L16.7925 13.86C17.096 14.9004 17.2501 15.9787 17.25 17.0625ZM15.2813 8.25H12.375V7.5H15.2813V8.25ZM16.3812 5.60747C16.1235 5.69387 15.8918 5.84387 15.7075 6.04357C15.5231 6.24327 15.3921 6.48624 15.3265 6.75H12V5.25C12 5.15054 11.9605 5.05516 11.8902 4.98484C11.8198 4.91451 11.7245 4.875 11.625 4.875H10.5V4.125H14.625C15.0455 4.12555 15.4523 4.27458 15.7736 4.54581C16.0949 4.81704 16.3101 5.19304 16.3812 5.60747ZM9 4.125H9.75V4.875H9V4.125ZM10.2077 8.83912L9.55702 9.75H8.9266L9.44925 8.91375C10.0688 7.92321 10.4269 6.79164 10.4899 5.625H11.25C11.2441 6.77851 10.8799 7.90168 10.2077 8.83912Z" fill="#0C2A4E"/>
<path d="M15.375 15.75H12C11.8012 15.7502 11.6105 15.8293 11.4699 15.9699C11.3293 16.1105 11.2502 16.3012 11.25 16.5V21C11.2502 21.1988 11.3293 21.3895 11.4699 21.5301C11.6105 21.6707 11.8012 21.7498 12 21.75H15.375C15.5738 21.7498 15.7645 21.6707 15.9051 21.5301C16.0457 21.3895 16.1248 21.1988 16.125 21V16.5C16.1248 16.3012 16.0457 16.1105 15.9051 15.9699C15.7645 15.8293 15.5738 15.7502 15.375 15.75ZM15.375 21H12V16.5H15.375L15.3755 21H15.375Z" fill="#0C2A4E"/>
<path d="M3.81045 1.65234C3.6487 1.5229 3.62251 1.28684 3.75195 1.12509C3.88139 0.963343 4.11745 0.937152 4.2792 1.06659L4.40723 1.16904C4.56898 1.29849 4.59517 1.53454 4.46573 1.6963C4.33628 1.85805 4.10023 1.88424 3.93848 1.7548L3.81045 1.65234Z" fill="#0C2A4E"/>
<path d="M6.66592 3.93604C6.50417 3.80659 6.47798 3.57054 6.60742 3.40879C6.73686 3.24703 6.97292 3.22084 7.13467 3.35029L7.26273 3.45277C7.42448 3.58221 7.45067 3.81827 7.32123 3.98002C7.19179 4.14177 6.95573 4.16796 6.79398 4.03852L6.66592 3.93604Z" fill="#0C2A4E"/>
<path d="M5.23819 2.79395C5.07644 2.6645 5.05025 2.42845 5.17969 2.2667C5.30913 2.10495 5.54519 2.07875 5.70694 2.2082L5.83496 2.31065C5.99671 2.44009 6.0229 2.67615 5.89346 2.8379C5.76402 2.99965 5.52796 3.02584 5.36621 2.8964L5.23819 2.79395Z" fill="#0C2A4E"/>
<path d="M5.46094 4.5C5.46094 4.29289 5.62883 4.125 5.83594 4.125H5.99986C6.20697 4.125 6.37486 4.29289 6.37486 4.5C6.37486 4.70711 6.20697 4.875 5.99986 4.875H5.83594C5.62883 4.875 5.46094 4.70711 5.46094 4.5Z" fill="#0C2A4E"/>
<path d="M3.63379 4.5C3.63379 4.29289 3.80168 4.125 4.00879 4.125H4.17271C4.37982 4.125 4.54771 4.29289 4.54771 4.5C4.54771 4.70711 4.37982 4.875 4.17271 4.875H4.00879C3.80168 4.875 3.63379 4.70711 3.63379 4.5Z" fill="#0C2A4E"/>
<path d="M1.80566 4.5C1.80566 4.29289 1.97356 4.125 2.18066 4.125H2.34459C2.55169 4.125 2.71959 4.29289 2.71959 4.5C2.71959 4.70711 2.55169 4.875 2.34459 4.875H2.18066C1.97356 4.875 1.80566 4.70711 1.80566 4.5Z" fill="#0C2A4E"/>
<path d="M3.75293 7.87491C3.62349 7.71316 3.64968 7.4771 3.81143 7.34766L3.93945 7.2452C4.1012 7.11576 4.33726 7.14195 4.4667 7.3037C4.59615 7.46546 4.56995 7.70151 4.4082 7.83096L4.28018 7.93341C4.11843 8.06285 3.88237 8.03666 3.75293 7.87491Z" fill="#0C2A4E"/>
<path d="M6.60742 5.59024C6.47798 5.42849 6.50417 5.19243 6.66592 5.06299L6.79398 4.96051C6.95573 4.83107 7.19179 4.85726 7.32123 5.01901C7.45067 5.18076 7.42448 5.41682 7.26273 5.54626L7.13467 5.64874C6.97292 5.77818 6.73686 5.75199 6.60742 5.59024Z" fill="#0C2A4E"/>
<path d="M5.17969 6.73282C5.05025 6.57107 5.07644 6.33501 5.23819 6.20557L5.36621 6.10312C5.52796 5.97367 5.76402 5.99986 5.89346 6.16162C6.0229 6.32337 5.99671 6.55942 5.83496 6.68887L5.70694 6.79132C5.54519 6.92076 5.30913 6.89457 5.17969 6.73282Z" fill="#0C2A4E"/>
<path d="M15.5299 13.1408C15.4827 13.155 15.4388 13.1783 15.4007 13.2094C15.3625 13.2405 15.3308 13.2789 15.3075 13.3222C15.2842 13.3656 15.2696 13.4131 15.2646 13.4621C15.2596 13.5111 15.2644 13.5606 15.2785 13.6078L15.391 13.9828C15.4049 14.0303 15.428 14.0746 15.4591 14.1131C15.4901 14.1516 15.5285 14.1836 15.572 14.2073C15.6155 14.2309 15.6632 14.2457 15.7124 14.2507C15.7617 14.2558 15.8114 14.2511 15.8588 14.2369C15.9062 14.2227 15.9503 14.1992 15.9886 14.1678C16.0269 14.1365 16.0586 14.0979 16.0819 14.0542C16.1052 14.0105 16.1196 13.9627 16.1243 13.9134C16.129 13.8642 16.1239 13.8145 16.1093 13.7672L15.9968 13.3922C15.9682 13.2969 15.903 13.2169 15.8154 13.1698C15.7279 13.1227 15.6252 13.1122 15.5299 13.1408Z" fill="#0C2A4E"/>
<path d="M14.7428 10.5158C14.6956 10.53 14.6517 10.5533 14.6136 10.5844C14.5754 10.6155 14.5437 10.6539 14.5204 10.6972C14.497 10.7406 14.4825 10.7881 14.4775 10.8371C14.4725 10.8861 14.4773 10.9356 14.4914 10.9828L14.9414 12.4828C14.9553 12.5303 14.9784 12.5746 15.0095 12.6131C15.0405 12.6516 15.0789 12.6836 15.1224 12.7072C15.1659 12.7309 15.2136 12.7457 15.2628 12.7507C15.3121 12.7558 15.3618 12.7511 15.4092 12.7369C15.4566 12.7227 15.5007 12.6992 15.539 12.6678C15.5773 12.6365 15.609 12.5979 15.6323 12.5542C15.6556 12.5105 15.67 12.4627 15.6747 12.4134C15.6794 12.3642 15.6743 12.3144 15.6597 12.2672L15.2097 10.7672C15.1811 10.6719 15.1159 10.5919 15.0283 10.5448C14.9407 10.4977 14.838 10.4872 14.7428 10.5158Z" fill="#0C2A4E"/>
</svg>
