<svg width="14" height="14" viewBox="0 0 14 14" fill="none" xmlns="http://www.w3.org/2000/svg">
<path d="M12.4154 4.82735L8.94409 4.32286L7.39233 1.17696C7.34995 1.09083 7.28022 1.0211 7.19409 0.978716C6.97807 0.872075 6.71557 0.960943 6.60757 1.17696L5.05581 4.32286L1.58452 4.82735C1.48882 4.84102 1.40132 4.88614 1.33432 4.9545C1.25333 5.03774 1.20871 5.14973 1.21024 5.26586C1.21178 5.38199 1.25936 5.49276 1.34253 5.57383L3.85405 8.02247L3.26069 11.4801C3.24678 11.5605 3.25568 11.6432 3.28638 11.7189C3.31709 11.7945 3.36837 11.86 3.43442 11.908C3.50046 11.9559 3.57863 11.9845 3.66005 11.9903C3.74147 11.9961 3.82288 11.9789 3.89507 11.9408L6.99995 10.3084L10.1048 11.9408C10.1896 11.9859 10.288 12.001 10.3824 11.9846C10.6203 11.9436 10.7802 11.718 10.7392 11.4801L10.1458 8.02247L12.6574 5.57383C12.7257 5.50684 12.7708 5.41934 12.7845 5.32364C12.8214 5.08438 12.6546 4.8629 12.4154 4.82735Z" fill="#FFA500"/>
</svg>
