<svg width="85" height="18" viewBox="0 0 85 18" fill="none" xmlns="http://www.w3.org/2000/svg">
<path d="M84.1411 12.0276C83.8787 12.0276 83.6655 12.2408 83.6655 12.5033C83.6655 12.7657 83.8786 12.9789 84.1411 12.9789C84.4035 12.9789 84.6168 12.7657 84.6168 12.5033C84.6168 12.2408 84.4035 12.0276 84.1411 12.0276ZM84.1411 12.9035C83.9199 12.9035 83.7409 12.7235 83.7409 12.5033C83.7409 12.282 83.9209 12.1031 84.1411 12.1031C84.3624 12.1031 84.5424 12.2831 84.5424 12.5033C84.5424 12.7235 84.3624 12.9035 84.1411 12.9035ZM84.296 12.4218C84.296 12.3353 84.2346 12.284 84.1441 12.284H83.9922V12.7175H84.0666V12.5606H84.1481L84.2265 12.7175H84.307L84.2205 12.5445C84.2668 12.5234 84.296 12.4811 84.296 12.4218ZM84.1411 12.4932H84.0677V12.3494H84.1411C84.1914 12.3494 84.2216 12.3746 84.2216 12.4208C84.2215 12.4681 84.1904 12.4932 84.1411 12.4932ZM26.8293 7.21387V6.06347H25.0655V12.9075H26.8293V8.80373C26.8293 8.06059 27.306 7.69554 28.0491 7.69554H29.0145V6.0635H28.1899C27.5443 6.06347 26.9832 6.40034 26.8293 7.21387ZM30.6667 3.35645C30.0633 3.35645 29.6007 3.8331 29.6007 4.43645C29.6007 5.02573 30.0633 5.50238 30.6667 5.50238C31.27 5.50238 31.7326 5.02573 31.7326 4.43645C31.7326 3.83308 31.27 3.35645 30.6667 3.35645ZM29.7868 12.9075H31.5466V6.06347H29.7868V12.9075ZM39.9292 9.48549C39.9292 11.4393 38.3454 13.0232 36.3915 13.0232C35.6031 13.0232 34.8881 12.7647 34.3149 12.3283V14.9167H32.5551V6.06347H34.3149V6.64268C34.8881 6.20626 35.6031 5.94783 36.3915 5.94783C38.3454 5.94783 39.9292 7.53164 39.9292 9.48549ZM38.1583 9.48549C38.1583 8.4246 37.2976 7.5638 36.2366 7.5638C35.1757 7.5638 34.3149 8.4246 34.3149 9.48549C34.3149 10.5464 35.1758 11.4072 36.2366 11.4072C37.2976 11.4072 38.1583 10.5474 38.1583 9.48549ZM70.5153 8.88516L69.4886 8.6036C68.8129 8.42761 68.5504 8.22046 68.5504 7.86349C68.5504 7.51554 68.9204 7.27219 69.4494 7.27219C69.9532 7.27219 70.3484 7.60202 70.3484 8.02436V8.06357H71.9704V8.02436C71.9704 6.78244 70.9578 5.9478 69.4494 5.9478C67.9561 5.9478 66.8711 6.78144 66.8711 7.93082C66.8711 8.82479 67.4633 9.49853 68.4971 9.77808L69.4806 10.0466C70.2277 10.2537 70.5053 10.483 70.5053 10.8943C70.5053 11.3277 70.104 11.6193 69.5067 11.6193C68.8842 11.6193 68.4649 11.2251 68.4649 10.6399V10.6007H66.7433V10.6399C66.7433 12.0437 67.8736 13.0251 69.4927 13.0251C71.0523 13.0251 72.1846 12.0668 72.1846 10.7475C72.1846 10.0999 71.895 9.25321 70.5153 8.88516ZM46.1719 6.06347H47.9317V12.9075H46.1719V12.3283C45.5987 12.7647 44.8837 13.0231 44.0954 13.0231C42.1415 13.0231 40.5577 11.4393 40.5577 9.48546C40.5577 7.53159 42.1415 5.9478 44.0954 5.9478C44.8837 5.9478 45.5987 6.20624 46.1719 6.64266V6.06347ZM46.1719 9.48549C46.1719 8.4236 45.3111 7.5638 44.2502 7.5638C43.1893 7.5638 42.3285 8.4246 42.3285 9.48549C42.3285 10.5464 43.1893 11.4072 44.2502 11.4072C45.3121 11.4072 46.1719 10.5474 46.1719 9.48549ZM54.2861 3.62795H56.0459V12.9085H54.2861V12.3293C53.7128 12.7657 52.9979 13.0242 52.2095 13.0242C50.2556 13.0242 48.6718 11.4403 48.6718 9.48647C48.6718 7.5326 50.2556 5.94881 52.2095 5.94881C52.9979 5.94881 53.7128 6.20725 54.2861 6.64367V3.62795ZM54.2861 9.48549C54.2861 8.4246 53.4252 7.5638 52.3643 7.5638C51.3035 7.5638 50.4427 8.4246 50.4427 9.48549C50.4427 10.5464 51.3024 11.4072 52.3643 11.4072C53.4252 11.4072 54.2861 10.5474 54.2861 9.48549ZM64.2163 12.9075H65.976V6.06347H64.2163V12.9075ZM65.0962 3.35645C64.4928 3.35645 64.0302 3.8331 64.0302 4.43645C64.0302 5.02573 64.4928 5.50238 65.0962 5.50238C65.6995 5.50238 66.1621 5.02573 66.1621 4.43645C66.1621 3.83308 65.6995 3.35645 65.0962 3.35645ZM79.7909 9.48549C79.7909 11.4393 78.2071 13.0232 76.2532 13.0232C74.2994 13.0232 72.7155 11.4394 72.7155 9.48549C72.7155 7.53161 74.2993 5.94783 76.2532 5.94783C78.2071 5.94783 79.7909 7.53164 79.7909 9.48549ZM78.1749 9.48549C78.1749 8.4246 77.3141 7.5638 76.2532 7.5638C75.1923 7.5638 74.3316 8.4246 74.3316 9.48549C74.3316 10.5464 75.1913 11.4072 76.2532 11.4072C77.3141 11.4072 78.1749 10.5474 78.1749 9.48549ZM25.9283 3.62795H19.1777V5.19768H21.6766V12.9075H23.4304V5.19768H25.9293V3.62795H25.9283ZM60.0672 11.0331L58.5015 6.0635H56.6532L59.0013 12.9075H61.119L63.4812 6.0635H61.6329L60.0672 11.0331ZM82.3692 7.21387V6.06347H80.6054V12.9075H82.3692V8.80373C82.3692 8.06059 82.8459 7.69554 83.589 7.69554H84.5544V6.0635H83.7298C83.0842 6.06347 82.5241 6.40034 82.3692 7.21387Z" fill="black"/>
<path d="M9 18C13.9706 18 18 13.9706 18 9C18 4.02944 13.9706 0 9 0C4.02944 0 0 4.02944 0 9C0 13.9706 4.02944 18 9 18Z" fill="#34E0A1"/>
<path d="M14.5579 7.24409L15.6439 6.06252H13.2355C12.0298 5.23893 10.5737 4.75928 8.99899 4.75928C7.42623 4.75928 5.97419 5.23997 4.77049 6.06252H2.35608L3.44211 7.24409C2.77643 7.85145 2.35911 8.72633 2.35911 9.69772C2.35911 11.5309 3.84538 13.0171 5.67857 13.0171C6.54941 13.0171 7.3428 12.6813 7.9351 12.1322L8.99901 13.2907L10.0629 12.1332C10.6552 12.6823 11.4476 13.0171 12.3184 13.0171C14.1516 13.0171 15.6399 11.5309 15.6399 9.69772C15.6409 8.72532 15.2236 7.85047 14.5579 7.24409ZM5.67955 11.9442C4.43864 11.9442 3.43308 10.9386 3.43308 9.69772C3.43308 8.45682 4.43867 7.45124 5.67955 7.45124C6.92044 7.45124 7.92602 8.45682 7.92602 9.69772C7.92602 10.9386 6.92044 11.9442 5.67955 11.9442ZM9 9.63236C9 8.15413 7.92503 6.8851 6.50614 6.34308C7.2734 6.02228 8.11508 5.8443 8.99899 5.8443C9.8829 5.8443 10.7256 6.02228 11.4928 6.34308C10.075 6.88611 9 8.15416 9 9.63236ZM12.3195 11.9442C11.0785 11.9442 10.073 10.9386 10.073 9.69772C10.073 8.45682 11.0785 7.45124 12.3195 7.45124C13.5604 7.45124 14.5659 8.45682 14.5659 9.69772C14.5659 10.9386 13.5603 11.9442 12.3195 11.9442ZM12.3195 8.51916C11.6688 8.51916 11.1419 9.04609 11.1419 9.69671C11.1419 10.3473 11.6688 10.8742 12.3195 10.8742C12.9701 10.8742 13.497 10.3473 13.497 9.69671C13.497 9.0471 12.9701 8.51916 12.3195 8.51916ZM6.85709 9.69772C6.85709 10.3483 6.33015 10.8753 5.67955 10.8753C5.02895 10.8753 4.50201 10.3483 4.50201 9.69772C4.50201 9.0471 5.02895 8.52016 5.67955 8.52016C6.33015 8.51916 6.85709 9.0471 6.85709 9.69772Z" fill="black"/>
</svg>