<svg width="18" height="18" viewBox="0 0 18 18" fill="none" xmlns="http://www.w3.org/2000/svg">
<path d="M17.8328 13.3821C17.8328 13.3105 17.7612 13.3105 17.7612 13.2389C17.4747 12.6659 16.8302 11.9497 15.9707 11.1619C15.541 10.8038 15.3262 10.5173 15.1829 10.3741C14.9681 10.0876 14.9681 9.87276 15.0397 9.58629C15.1113 9.37143 15.3978 9.01333 15.8991 8.36875C16.1856 8.01066 16.3288 7.79581 16.5437 7.58095C17.6179 6.14857 18.1193 5.21752 17.976 4.7878L17.9044 4.71619C17.8328 4.64457 17.7612 4.57295 17.6179 4.57295C17.4747 4.50134 17.2599 4.50134 17.045 4.57295H14.3235C14.2519 4.57295 14.2519 4.57295 14.1087 4.57295C14.0371 4.57295 13.9655 4.57295 13.9655 4.57295H13.8938H13.8222L13.7506 4.64457C13.679 4.71619 13.679 4.71618 13.679 4.7878C13.3925 5.57561 13.0344 6.22018 12.6763 6.93637C12.4615 7.29447 12.2466 7.65257 12.0318 7.93905C11.8169 8.22552 11.6737 8.44038 11.5304 8.58361C11.3872 8.72685 11.244 8.79847 11.1723 8.94171C11.1007 9.01333 10.9575 9.08495 10.9575 9.01333C10.8859 9.01333 10.8143 9.01333 10.8143 8.94171C10.7426 8.87009 10.671 8.79847 10.5994 8.72685C10.5278 8.65523 10.5278 8.51199 10.4562 8.36875C10.4562 8.22552 10.4562 8.08228 10.4562 8.01066C10.4562 7.93904 10.4562 7.72419 10.4562 7.58095C10.4562 7.36609 10.4562 7.22285 10.4562 7.15123C10.4562 6.93638 10.4562 6.64991 10.4562 6.36343C10.4562 6.07695 10.4562 5.86209 10.4562 5.71885C10.4562 5.57561 10.4562 5.36076 10.4562 5.21752C10.4562 5.00266 10.4562 4.85942 10.4562 4.7878C10.4562 4.71618 10.3846 4.57295 10.3846 4.50133C10.313 4.42971 10.2413 4.35809 10.1697 4.28647C10.0981 4.21485 9.95486 4.21485 9.88324 4.14324C9.52515 4.07162 9.09546 4 8.59413 4C7.44825 4 6.66045 4.07162 6.37398 4.21486C6.23074 4.28648 6.08751 4.35809 6.01589 4.50133C5.87266 4.64457 5.87265 4.71619 5.94427 4.71619C6.30236 4.78781 6.58883 4.93104 6.73207 5.1459L6.80369 5.28914C6.87531 5.36076 6.87529 5.504 6.94691 5.71885C7.01853 5.93371 7.01853 6.14857 7.01853 6.43504C7.01853 6.86476 7.01853 7.29448 7.01853 7.58095C7.01853 7.93905 6.94691 8.1539 6.94691 8.36875C6.94691 8.58361 6.87531 8.72685 6.80369 8.79847C6.73207 8.94171 6.73206 9.01333 6.66045 9.01333C6.66045 9.01333 6.66044 9.08494 6.58882 9.08494C6.51721 9.08494 6.44559 9.15657 6.30236 9.15657C6.23074 9.15657 6.08751 9.08495 6.01589 9.01333C5.87266 8.94171 5.72942 8.79847 5.6578 8.65524C5.51457 8.512 5.37133 8.29714 5.22809 8.01066C5.08486 7.72418 4.87 7.43771 4.72676 7.008L4.58354 6.72153C4.51192 6.57829 4.36868 6.29181 4.22545 5.93371C4.08221 5.57562 3.93897 5.28914 3.79574 4.93105C3.72412 4.78781 3.65251 4.71619 3.58089 4.64457H3.50927C3.50927 4.64457 3.43765 4.57295 3.36603 4.57295C3.29441 4.57295 3.2228 4.50133 3.15118 4.50133H0.572944C0.286473 4.50133 0.14324 4.57295 0.071622 4.64457L0 4.71619C0 4.71619 0 4.78781 0 4.85943C0 4.93105 4.37013e-06 5.00266 0.071622 5.1459C0.42971 6.00533 0.859414 6.86476 1.28912 7.72419C1.71883 8.512 2.14854 9.22819 2.43501 9.72952C2.7931 10.2309 3.07956 10.7322 3.43765 11.1619C3.79574 11.5916 4.01059 11.8781 4.0822 12.0213C4.22544 12.1646 4.29705 12.2362 4.36867 12.3078L4.58354 12.5227C4.72677 12.6659 4.94162 12.8808 5.22809 13.0956C5.51456 13.3105 5.87265 13.5253 6.23073 13.7402C6.58882 13.955 7.01854 14.0983 7.44824 14.2415C7.94957 14.3848 8.37927 14.4564 8.80898 14.3848H9.88324C10.0981 14.3848 10.2413 14.3131 10.3846 14.1699L10.4562 14.0983C10.4562 14.0267 10.5278 14.0267 10.5278 13.955C10.5278 13.8834 10.5278 13.8118 10.5278 13.6686C10.5278 13.3821 10.5278 13.1672 10.5994 12.9524C10.671 12.7375 10.671 12.5943 10.7427 12.451C10.8143 12.3078 10.8859 12.2362 10.9575 12.1646C11.0291 12.0929 11.1007 12.0213 11.1007 12.0213H11.1723C11.3156 11.9497 11.5304 12.0213 11.6737 12.1646C11.8885 12.3078 12.1034 12.5227 12.2466 12.7375C12.3899 12.9524 12.6047 13.1672 12.8912 13.4537C13.1777 13.7402 13.3925 13.955 13.5357 14.0267L13.7506 14.1699C13.8938 14.2415 14.0371 14.3131 14.2519 14.3848C14.4668 14.4564 14.61 14.4564 14.7532 14.4564L17.1883 14.3848C17.4031 14.3848 17.6179 14.3131 17.7612 14.2415C17.9044 14.1699 17.976 14.0983 17.976 13.955C17.976 13.8834 17.976 13.7402 17.976 13.6686C17.8328 13.5253 17.8328 13.4537 17.8328 13.3821Z" fill="#73808E"/>
</svg>
