<svg width="70" height="71" viewBox="0 0 70 71" fill="none" xmlns="http://www.w3.org/2000/svg">
<path fill-rule="evenodd" clip-rule="evenodd" d="M53.2685 37.4696C53.2685 41.1373 50.6208 43.5622 47.3542 43.5622H44.4436C42.2328 46.0485 39.0202 47.6132 35.4444 47.6132C31.8687 47.6132 28.656 46.0485 26.4453 43.5622H23.5339C20.2689 43.5622 17.6204 40.8351 17.6204 37.4696V33.4511C17.6204 30.0856 20.2689 27.3585 23.5339 27.3585H26.4453C28.656 24.8723 31.8687 23.3076 35.4444 23.3076C39.0201 23.3076 42.2328 24.8723 44.4435 27.3585H47.3542C50.6208 27.3585 53.2685 30.0856 53.2685 33.4511V37.4696ZM27.5564 31.4093H29.7731L27.904 39.5112H25.8915L25.0092 34.5318L24.1471 39.5112H22.1549L20.2664 31.432H22.5252L23.1814 36.1562L24.0451 31.432H26.0365L26.8783 36.1562L27.5564 31.4093ZM33.4254 33.8399H31.3934V39.5112H33.4254V33.8399ZM33.3538 32.4145C33.4022 32.2869 33.4244 32.1508 33.4189 32.0144C33.4189 31.4505 32.9652 30.9951 32.4062 30.9951C31.8472 30.9951 31.3935 31.4505 31.3935 32.0144C31.388 32.1508 31.4102 32.2869 31.4586 32.4145C31.507 32.5421 31.5808 32.6586 31.6753 32.7571C31.7699 32.8555 31.8834 32.9338 32.009 32.9873C32.1346 33.0408 32.2697 33.0684 32.4062 33.0684C32.5427 33.0684 32.6778 33.0408 32.8034 32.9873C32.929 32.9338 33.0425 32.8555 33.1371 32.7571C33.2316 32.6586 33.3054 32.5421 33.3538 32.4145ZM40.777 28.9788H47.2415C51.4634 28.9788 51.6481 33.4899 51.6481 33.4899V37.4428C51.6481 41.9417 47.423 41.9417 47.423 41.9417H33.824C36.3364 39.6659 36.2546 37.2832 36.2546 37.2832V33.7702C36.2546 29.1351 40.777 28.9788 40.777 28.9788Z" fill="#4D4F4A"/>
<path fill-rule="evenodd" clip-rule="evenodd" d="M46.2514 33.3286H41.6731V35.1402H45.8002V37.0393H41.6731V39.5112H39.4953V31.4093H46.2514V33.3286ZM48.6099 30.9953C49.1681 30.9953 49.6226 31.4506 49.6226 32.0145C49.6226 32.576 49.1681 33.0297 48.6099 33.0297C48.0517 33.0297 47.5971 32.576 47.5971 32.0145C47.5971 31.4506 48.0517 30.9953 48.6099 30.9953ZM49.6291 39.5112H47.5971V33.8399H49.6291V39.5112Z" fill="#4D4F4A"/>
</svg>
