<svg width="70" height="70" viewBox="0 0 70 70" fill="none" xmlns="http://www.w3.org/2000/svg">
<path d="M17.3944 46.9639L17.3818 46.9765L17.3676 46.9871C16.877 47.355 16.8257 48.2924 17.5358 48.8604L17.5466 48.8691L17.5564 48.8789L21.2833 52.6057C21.8338 53.1562 22.6477 53.1562 23.1982 52.6057L37.9436 37.8603L38.0592 37.7447L38.2115 37.8043C41.8461 39.2266 46.1159 38.438 49.1242 35.4298C52.2058 32.3482 53.0337 27.7733 51.3324 24.0387L44.4525 30.7622L44.2758 30.9349L44.101 30.7602L39.2399 25.8991L39.0631 25.7223L39.2399 25.5455L45.9484 18.837C42.2073 17.2792 37.6413 17.967 34.5703 21.038C31.5621 24.0462 30.7735 28.316 32.1958 31.9506L32.2554 32.1029L32.1397 32.2185L17.3944 46.9639Z" fill="#4D4F4A" stroke="white" stroke-width="0.5"/>
</svg>