<svg width="72" height="18" viewBox="0 0 72 18" fill="none" xmlns="http://www.w3.org/2000/svg">
<g clip-path="url(#clip0)">
<path d="M19.3922 9.28455L17.7654 12.9374H16.5791L18.3656 9.03143C17.9475 8.81776 17.5969 8.4924 17.3525 8.09149C17.0944 7.67805 16.9655 7.11612 16.9655 6.40512C16.9655 5.9073 17.0387 5.46968 17.1855 5.09224C17.3323 4.71424 17.5325 4.40093 17.7857 4.1523C18.0388 3.90312 18.3341 3.71693 18.6722 3.59205C19.0137 3.46691 19.3749 3.40367 19.7387 3.4053H21.2715V12.9374H20.2455V9.28455H19.3922ZM20.2455 4.27212H19.6987C19.494 4.27212 19.2937 4.3098 19.0985 4.38518C18.8996 4.46311 18.7217 4.58638 18.5788 4.74518C18.4275 4.90999 18.3054 5.12768 18.212 5.3988C18.1187 5.66993 18.072 6.00518 18.072 6.40512C18.072 6.78762 18.1142 7.10712 18.1991 7.36474C18.2835 7.62293 18.3988 7.83162 18.5456 7.99137C18.6919 8.15168 18.8657 8.26474 19.0654 8.33168C19.2656 8.39805 19.476 8.43124 19.6987 8.43124H20.2455V4.27212V4.27212Z" fill="black"/>
<path d="M26.2181 6.21834V12.9374H25.191V9.92465H23.6447V12.9374H22.6046V6.21834H23.6447V9.07134H25.1916V6.21834H26.2176H26.2181ZM31.5636 14.257H30.6298V12.9374H27.7509V14.257H26.8172V12.0841H27.2306C27.3819 11.7286 27.5017 11.336 27.5906 10.9045C27.6795 10.4731 27.7481 10.0287 27.7976 9.5714C27.846 9.11352 27.8775 8.64721 27.8904 8.17134C27.9039 7.69602 27.9107 7.2359 27.9107 6.79152V6.21834H31.0303V12.0841H31.5636V14.257V14.257ZM30.0037 7.05815H28.8439V7.17852C28.8439 7.53402 28.8371 7.92271 28.8236 8.34459C28.8107 8.76646 28.7814 9.19565 28.737 9.63102C28.6926 10.067 28.6301 10.4956 28.5508 10.9175C28.4775 11.3162 28.3658 11.7069 28.2172 12.0841H30.0037V7.05815V7.05815ZM36.0827 12.484C35.8689 12.6528 35.6248 12.7861 35.3497 12.884C35.0741 12.9818 34.7676 13.0302 34.4295 13.0302C33.7365 13.0302 33.1897 12.7619 32.7898 12.2241C32.3904 11.6864 32.1902 10.8978 32.1902 9.85771C32.1902 9.31546 32.2279 8.81821 32.3032 8.36484C32.3786 7.91146 32.499 7.51827 32.6632 7.18471C32.8275 6.85171 33.039 6.59184 33.2966 6.40509C33.5542 6.21834 33.8608 6.12496 34.2163 6.12496C34.4919 6.12496 34.7451 6.18065 34.9762 6.29202C35.2069 6.40284 35.4026 6.58284 35.5629 6.83202C35.7227 7.08065 35.847 7.40296 35.9359 7.7984C36.0247 8.19384 36.0692 8.6759 36.0692 9.24459V9.81834H33.2696C33.2696 10.5822 33.3742 11.1599 33.5829 11.5508C33.7922 11.9418 34.1055 12.1375 34.5229 12.1375C34.8165 12.1375 35.0764 12.0869 35.3031 11.984C35.5297 11.8821 35.7092 11.782 35.8431 11.6841L36.0827 12.484V12.484ZM34.2163 6.97827C33.8962 6.97827 33.6696 7.15827 33.5362 7.51827C33.4029 7.87827 33.3186 8.36034 33.2831 8.96446H35.0027C35.0027 8.6804 34.9897 8.41602 34.9633 8.17134C34.9425 7.95645 34.8999 7.74423 34.8362 7.53796C34.7782 7.36021 34.6984 7.22296 34.5966 7.12509C34.546 7.07677 34.4863 7.03897 34.4211 7.01387C34.3558 6.98876 34.2862 6.97686 34.2163 6.97884V6.97827ZM38.1757 9.59109V12.9374H37.1357V6.21834H38.1757V9.32446L39.789 6.21834H40.842L39.1759 9.3779L41.0822 12.9374H39.9487L38.1757 9.59109V9.59109ZM43.5217 13.0308C42.8017 13.0308 42.2376 12.7439 41.8286 12.1707C41.4197 11.5975 41.2155 10.7335 41.2155 9.57759C41.2155 9.05334 41.2661 8.57802 41.3685 8.15165C41.4709 7.72471 41.6216 7.36246 41.8219 7.0649C42.0112 6.77713 42.2673 6.53938 42.5683 6.3719C42.8664 6.20709 43.2107 6.12496 43.6016 6.12496C43.9037 6.12496 44.1484 6.15871 44.3346 6.22509C44.5213 6.29202 44.6901 6.37415 44.8414 6.47146L44.6951 7.45809C44.5434 7.32766 44.3751 7.21795 44.1945 7.13184C44.0032 7.03846 43.8013 6.99121 43.5881 6.99121C43.2152 6.99121 42.9086 7.20046 42.6684 7.6184C42.4282 8.03577 42.3084 8.6714 42.3084 9.52471C42.3084 10.3685 42.4086 11.0198 42.6082 11.4777C42.8085 11.9356 43.1218 12.164 43.5482 12.164C43.8058 12.164 44.028 12.1218 44.2147 12.0374C44.4015 11.953 44.5567 11.8574 44.6816 11.7505L44.9212 12.524C44.7415 12.6764 44.5392 12.8001 44.3216 12.8907C44.0994 12.9841 43.8322 13.0308 43.5217 13.0308ZM48.7873 7.91202V12.9374H48.1207V3.40527H48.7873V7.85802L51.5739 3.40527H52.2135L49.4674 7.80459L52.4531 12.9374H51.7067L48.7873 7.91146V7.91202ZM56.0137 12.9374C55.9811 12.8251 55.9522 12.7118 55.9271 12.5976C55.8895 12.4106 55.865 12.2211 55.854 12.0306C55.6937 12.3513 55.494 12.6044 55.2538 12.7906C55.0136 12.9773 54.7251 13.0707 54.3876 13.0707C53.9336 13.0707 53.5652 12.8997 53.2806 12.5577C52.9959 12.2151 52.8542 11.7376 52.8542 11.1245C52.8542 10.4045 53.0454 9.85996 53.4274 9.49152C53.8099 9.12252 54.3651 8.93802 55.0935 8.93802H55.827V8.09821C55.827 7.5824 55.7336 7.20946 55.5469 6.97884C55.3601 6.74709 55.08 6.63177 54.7071 6.63177C54.4224 6.63177 54.1558 6.6959 53.9072 6.82527C53.6586 6.95409 53.4538 7.13409 53.2941 7.36527L53.1208 6.76509C53.2541 6.58734 53.4561 6.42927 53.7272 6.29202C53.9983 6.15421 54.3251 6.08502 54.7071 6.08502C55.2667 6.08502 55.6959 6.24252 55.9935 6.55865C56.2916 6.87365 56.4401 7.36471 56.4401 8.03127V11.6976C56.4401 11.9283 56.4536 12.1617 56.48 12.3974C56.507 12.6331 56.5419 12.8131 56.5869 12.9374H56.0132H56.0137ZM54.5203 12.5639C54.8314 12.5639 55.0957 12.4351 55.3134 12.1775C55.5415 11.9013 55.7157 11.5847 55.827 11.2443V9.3914H55.107C54.5473 9.3914 54.1339 9.52471 53.8672 9.79077C53.6006 10.058 53.4673 10.4843 53.4673 11.071C53.4673 11.5508 53.5629 11.9198 53.7542 12.1775C53.9454 12.4351 54.2002 12.5639 54.5203 12.5639ZM59.7066 13.0572C59.4484 13.0572 59.2155 13.0021 59.0062 12.8907C58.8101 12.7902 58.6394 12.6465 58.5067 12.4705V15.017H57.8801V6.21834H58.4263L58.4797 7.32477C58.6299 7.00646 58.8328 6.71586 59.0799 6.46527C59.3286 6.21215 59.6396 6.08502 60.0131 6.08502C60.2887 6.08502 60.5374 6.1649 60.7596 6.32521C60.9817 6.48496 61.1685 6.7094 61.3192 6.99852C61.4706 7.28709 61.5859 7.63415 61.6657 8.03802C61.7462 8.44302 61.7861 8.88909 61.7861 9.3779C61.7861 10.6131 61.5949 11.5356 61.2124 12.1443C60.8304 12.7529 60.3287 13.0572 59.7066 13.0572V13.0572ZM59.7459 12.5639C60.1729 12.5639 60.5149 12.3085 60.7731 11.7978C61.0307 11.2865 61.1595 10.4978 61.1595 9.43134C61.1595 8.54259 61.0481 7.85352 60.8259 7.36471C60.6037 6.8759 60.2972 6.63177 59.9062 6.63177C59.7546 6.63189 59.6055 6.67081 59.4731 6.74484C59.3296 6.82476 59.1991 6.92605 59.0861 7.04521C58.961 7.17653 58.8516 7.32187 58.7599 7.47834C58.6623 7.64249 58.5776 7.81401 58.5067 7.99134V11.7511C58.6401 12.0267 58.8043 12.2309 58.9995 12.3642C59.1952 12.4975 59.4439 12.5639 59.7465 12.5639H59.7459ZM64.4259 6.73809V12.9374H63.7987V6.73865H62.2395V6.21834H65.9722V6.73809H64.4254H64.4259ZM66.9718 6.21834H67.5984V8.71134H68.0917C68.7313 8.71134 69.2426 8.88459 69.6246 9.23109C70.0071 9.57815 70.1983 10.1024 70.1983 10.8044C70.1983 11.5154 69.9981 12.0486 69.5981 12.4041C69.1982 12.7596 68.6829 12.9374 68.0512 12.9374H66.9712V6.21834H66.9718ZM67.5984 9.20465V12.4446H67.9978C68.4692 12.4446 68.8517 12.3175 69.1453 12.0644C69.4378 11.8113 69.5846 11.395 69.5846 10.8179C69.5846 10.2486 69.4513 9.83802 69.1852 9.58434C68.9181 9.33121 68.5451 9.20465 68.0647 9.20465H67.5979H67.5984ZM71.5303 12.9374H70.9172V6.21834H71.5303V12.9374Z" fill="black"/>
</g>
<g clip-path="url(#clip1)">
<path d="M6.75005 2.8125C5.74915 2.81303 4.77085 3.11017 3.93874 3.66639C3.10662 4.22262 2.45802 5.01297 2.07484 5.93762C1.69167 6.86227 1.59112 7.87973 1.78589 8.8615C1.98066 9.84326 2.46203 10.7453 3.16917 11.4536C4.08605 12.3705 6.24379 13.6969 6.37148 15.0902C6.39061 15.2983 6.54192 15.4688 6.75005 15.4688C6.95817 15.4688 7.11005 15.2983 7.12861 15.0902C7.2563 13.6969 9.41236 12.3728 10.3287 11.4564C11.0366 10.7484 11.5188 9.84632 11.7142 8.86429C11.9096 7.88225 11.8095 6.86433 11.4265 5.9392C11.0435 5.01406 10.3948 4.22324 9.56239 3.66671C8.73002 3.11018 7.75133 2.81292 6.75005 2.8125V2.8125ZM6.75005 9.60694C6.5226 9.60694 6.29739 9.56214 6.08726 9.4751C5.87713 9.38806 5.68621 9.26049 5.52538 9.09966C5.36455 8.93884 5.23698 8.74791 5.14994 8.53778C5.06291 8.32766 5.01811 8.10244 5.01811 7.875C5.01811 7.64756 5.06291 7.42234 5.14994 7.21222C5.23698 7.00209 5.36455 6.81116 5.52538 6.65034C5.68621 6.48951 5.87713 6.36194 6.08726 6.2749C6.29739 6.18786 6.5226 6.14306 6.75005 6.14306C7.20938 6.14306 7.64991 6.32553 7.97471 6.65034C8.29951 6.97514 8.48198 7.41566 8.48198 7.875C8.48198 8.33434 8.29951 8.77486 7.97471 9.09966C7.64991 9.42447 7.20938 9.60694 6.75005 9.60694V9.60694Z" fill="#FF4433"/>
</g>
<defs>
<clipPath id="clip0">
<rect width="55.6875" height="18" fill="white" transform="translate(16.3125)"/>
</clipPath>
<clipPath id="clip1">
<rect width="13.5" height="13.5" fill="white" transform="translate(0 2.25)"/>
</clipPath>
</defs>
</svg>
